<svg id="svg" version="1.1" xmlns="http://www.w3.org/2000/svg" xmlns:xlink="http://www.w3.org/1999/xlink" width="400" height="112.45714285714286" viewBox="0, 0, 400,112.45714285714286"><g id="svgg"><path id="path0" d="M3.200 3.200 C 2.801 3.599,2.922 110.613,3.323 110.828 C 3.545 110.946,64.951 110.987,200.364 110.958 L 397.083 110.917 397.083 57.000 L 397.083 3.083 200.242 3.042 C 47.280 3.009,3.356 3.044,3.200 3.200 M394.250 57.000 L 394.250 108.083 200.177 108.125 C 45.028 108.158,6.077 108.125,5.971 107.958 C 5.812 107.708,5.785 6.104,5.945 5.944 C 6.006 5.883,93.399 5.852,200.153 5.875 L 394.250 5.917 394.250 57.000 M13.833 57.083 L 13.833 100.833 106.750 100.833 L 199.667 100.833 199.667 57.083 L 199.667 13.333 106.750 13.333 L 13.833 13.333 13.833 57.083 M160.645 42.602 C 160.954 42.729,161.346 42.833,161.515 42.833 C 162.007 42.833,164.721 44.080,165.024 44.446 C 165.125 44.567,165.302 44.667,165.417 44.667 C 166.475 44.667,170.164 49.554,170.583 51.512 C 170.650 51.826,170.762 52.158,170.831 52.250 C 170.900 52.342,171.003 52.754,171.059 53.167 C 171.115 53.579,171.233 54.292,171.321 54.750 C 171.528 55.831,171.528 57.552,171.323 58.500 C 171.233 58.913,171.117 59.550,171.064 59.917 C 170.929 60.859,170.566 61.922,169.839 63.500 C 169.454 64.337,169.185 64.792,168.875 65.130 C 168.760 65.255,168.667 65.412,168.667 65.478 C 168.667 66.105,164.909 69.107,163.333 69.739 C 162.921 69.905,162.433 70.102,162.250 70.179 C 161.236 70.601,159.144 70.922,156.917 70.996 C 156.258 71.018,153.109 70.669,152.500 70.506 C 149.419 69.681,146.643 67.697,144.925 65.091 C 144.073 63.798,143.844 63.354,143.287 61.917 C 142.223 59.168,142.275 53.893,143.395 51.000 C 143.888 49.726,144.079 49.333,144.203 49.333 C 144.275 49.333,144.333 49.229,144.333 49.102 C 144.333 48.008,148.096 44.506,150.250 43.595 C 150.617 43.440,151.129 43.205,151.389 43.073 C 151.648 42.941,152.047 42.833,152.274 42.833 C 152.502 42.833,152.852 42.742,153.053 42.629 C 153.831 42.194,159.604 42.173,160.645 42.602 M100.083 42.748 C 100.908 42.803,101.820 42.958,102.109 43.091 C 102.397 43.224,102.755 43.333,102.904 43.333 C 103.052 43.333,103.470 43.521,103.833 43.750 C 104.196 43.979,104.567 44.167,104.658 44.167 C 105.385 44.167,107.619 47.263,108.152 49.012 C 108.446 49.977,108.382 53.704,108.053 54.719 C 107.286 57.089,105.273 59.284,103.262 59.943 C 102.294 60.260,102.341 60.458,103.933 62.809 C 104.749 64.014,105.493 65.131,105.586 65.292 C 105.810 65.678,106.714 67.039,106.886 67.250 C 106.961 67.342,107.428 68.017,107.923 68.750 C 109.068 70.444,109.018 70.500,106.374 70.500 C 104.020 70.500,104.170 70.590,102.576 68.221 C 101.847 67.137,101.191 66.175,101.118 66.083 C 100.854 65.750,98.122 61.738,97.856 61.293 L 97.583 60.835 94.792 60.834 L 92.000 60.833 92.000 65.494 C 92.000 70.921,92.168 70.500,90.000 70.500 C 87.750 70.500,88.000 72.234,88.000 56.632 C 88.000 44.202,88.023 43.085,88.280 42.800 C 88.567 42.483,95.668 42.451,100.083 42.748 M134.511 42.673 C 134.797 42.825,134.833 43.034,134.833 44.504 L 134.833 46.163 128.292 46.206 L 121.750 46.250 121.750 50.333 L 121.750 54.417 127.715 54.500 C 134.586 54.596,133.994 54.411,133.997 56.462 C 134.001 58.270,134.399 58.167,127.406 58.167 L 121.667 58.167 121.667 62.583 L 121.667 67.000 128.236 67.000 C 131.850 67.000,134.925 67.046,135.070 67.101 C 135.504 67.268,135.452 70.258,135.011 70.494 C 134.402 70.820,118.172 70.723,117.805 70.391 C 117.306 69.939,117.334 43.333,117.833 42.833 C 118.217 42.450,133.814 42.299,134.511 42.673 M294.750 42.778 C 287.277 44.154,283.254 48.748,283.043 56.151 C 282.856 62.701,285.935 67.622,291.450 69.584 C 291.890 69.741,292.400 69.929,292.583 70.003 C 294.552 70.795,300.322 70.782,301.873 69.983 C 302.032 69.900,302.246 69.833,302.348 69.833 C 302.689 69.833,305.401 68.565,305.737 68.248 C 305.836 68.155,306.253 67.817,306.664 67.498 C 309.774 65.079,312.265 58.906,311.540 55.415 L 311.402 54.750 303.826 54.750 L 296.250 54.750 296.204 57.208 L 296.158 59.667 299.308 59.667 C 303.843 59.667,303.957 59.713,303.028 61.179 C 301.225 64.023,296.843 64.807,293.500 62.883 C 288.866 60.218,289.202 52.300,294.045 50.029 C 296.711 48.780,300.272 49.327,302.265 51.291 L 302.991 52.006 306.870 51.961 L 310.750 51.917 310.708 51.532 C 310.338 48.089,304.793 43.529,300.250 42.928 C 299.883 42.880,299.246 42.767,298.833 42.677 C 297.795 42.452,296.325 42.488,294.750 42.778 M62.500 48.565 C 62.574 53.610,62.613 54.233,62.862 54.390 C 63.227 54.620,68.610 54.290,68.879 54.021 C 68.982 53.918,69.189 53.833,69.338 53.833 C 69.990 53.833,72.167 51.108,72.167 50.291 C 72.167 50.202,72.474 49.332,72.850 48.356 C 73.226 47.381,73.639 46.302,73.767 45.958 C 74.203 44.790,74.545 43.918,74.780 43.375 L 75.016 42.833 77.013 42.833 C 79.562 42.833,79.499 42.723,78.394 45.275 C 78.269 45.564,78.167 45.884,78.167 45.986 C 78.167 46.088,78.099 46.301,78.017 46.461 C 77.935 46.620,77.741 47.087,77.587 47.500 C 77.433 47.913,77.200 48.462,77.070 48.722 C 76.940 48.981,76.833 49.298,76.833 49.425 C 76.833 49.638,76.493 50.520,76.146 51.206 C 76.066 51.365,76.000 51.570,76.000 51.661 C 76.000 52.405,74.382 54.955,73.199 56.075 L 72.648 56.597 73.254 57.757 C 73.587 58.395,73.927 59.029,74.009 59.167 C 74.982 60.805,75.458 61.626,75.555 61.833 C 75.619 61.971,75.897 62.458,76.174 62.917 C 76.450 63.375,76.752 63.900,76.845 64.083 C 76.938 64.267,77.105 64.567,77.216 64.750 C 77.328 64.933,77.814 65.796,78.298 66.667 C 78.782 67.537,79.248 68.362,79.333 68.500 C 80.513 70.410,80.450 70.498,77.917 70.486 C 75.844 70.475,75.579 70.410,75.274 69.830 C 74.846 69.014,73.769 67.074,73.473 66.583 C 73.307 66.308,73.097 65.933,73.007 65.750 C 72.916 65.567,72.538 64.892,72.166 64.250 C 71.794 63.608,71.399 62.896,71.290 62.667 C 71.180 62.438,71.051 62.212,71.003 62.167 C 70.905 62.072,70.720 61.749,69.926 60.282 C 69.619 59.714,69.229 59.007,69.059 58.709 L 68.750 58.169 65.625 58.168 L 62.500 58.167 62.500 64.161 C 62.500 69.916,62.487 70.162,62.178 70.327 C 61.831 70.513,59.493 70.561,58.875 70.395 L 58.500 70.294 58.500 56.675 C 58.500 49.184,58.552 43.003,58.616 42.939 C 58.680 42.875,59.561 42.844,60.575 42.870 L 62.417 42.917 62.500 48.565 M204.500 56.580 L 204.500 70.167 208.084 70.167 L 211.669 70.167 211.626 56.625 L 211.583 43.083 208.042 43.038 L 204.500 42.993 204.500 56.580 M218.167 56.583 L 218.167 70.167 221.748 70.167 L 225.330 70.167 225.373 63.458 C 225.424 55.586,225.407 55.649,226.927 57.833 C 228.562 60.181,230.551 62.925,230.884 63.292 C 231.235 63.678,235.407 63.880,235.947 63.536 C 236.110 63.432,239.323 59.083,240.167 57.824 C 241.645 55.617,241.667 55.699,241.667 63.495 L 241.667 70.167 245.251 70.167 L 248.835 70.167 248.793 56.625 L 248.750 43.083 245.882 43.038 L 243.014 42.992 242.244 44.038 C 241.821 44.613,240.545 46.396,239.408 48.000 C 234.707 54.634,233.805 55.833,233.512 55.833 C 233.232 55.833,232.177 54.428,227.969 48.448 C 225.059 44.313,224.284 43.246,224.103 43.128 C 224.001 43.060,222.623 43.004,221.042 43.003 L 218.167 43.000 218.167 56.583 M262.769 43.792 C 262.595 44.227,262.362 44.808,262.250 45.083 C 262.137 45.358,261.915 45.921,261.756 46.333 C 261.596 46.746,261.398 47.214,261.316 47.373 C 261.234 47.532,261.167 47.746,261.167 47.848 C 261.167 47.950,261.064 48.269,260.939 48.558 C 260.814 48.847,260.580 49.421,260.419 49.833 C 260.258 50.246,260.064 50.733,259.987 50.917 C 259.910 51.100,259.503 52.150,259.082 53.250 C 258.661 54.350,258.199 55.550,258.055 55.917 C 257.790 56.592,257.739 56.726,257.287 57.917 C 257.148 58.283,256.809 59.146,256.534 59.833 C 256.259 60.521,255.940 61.346,255.825 61.667 C 255.710 61.987,255.526 62.475,255.414 62.750 C 255.303 63.025,255.080 63.587,254.919 64.000 C 254.758 64.412,254.562 64.900,254.484 65.083 C 254.405 65.267,253.933 66.485,253.436 67.792 L 252.531 70.167 256.478 70.167 L 260.426 70.167 260.990 68.625 C 261.301 67.777,261.698 66.876,261.874 66.622 L 262.193 66.161 266.805 66.206 L 271.417 66.250 271.750 66.931 C 271.933 67.305,272.168 67.830,272.272 68.097 C 272.376 68.365,272.601 68.939,272.772 69.374 L 273.083 70.165 277.042 70.166 C 279.219 70.166,281.000 70.128,281.000 70.081 C 281.000 70.034,280.928 69.865,280.839 69.706 C 280.751 69.547,280.335 68.517,279.915 67.417 C 279.496 66.317,279.090 65.267,279.013 65.083 C 278.936 64.900,278.760 64.450,278.622 64.083 C 278.178 62.905,277.797 61.925,277.650 61.583 C 277.571 61.400,277.063 60.087,276.521 58.667 C 275.980 57.246,275.461 55.896,275.370 55.667 C 275.278 55.438,275.073 54.913,274.915 54.500 C 274.756 54.087,274.564 53.600,274.487 53.417 C 274.410 53.233,274.003 52.183,273.582 51.083 C 272.797 49.030,272.397 48.002,272.157 47.417 C 272.081 47.233,271.665 46.165,271.232 45.042 L 270.444 43.000 266.764 43.001 L 263.083 43.001 262.769 43.792 M316.448 43.108 C 316.385 43.171,316.333 49.285,316.333 56.694 L 316.333 70.167 320.001 70.167 L 323.669 70.167 323.626 56.625 L 323.583 43.083 320.073 43.038 C 318.142 43.014,316.511 43.045,316.448 43.108 M330.111 43.111 C 330.050 43.172,330.000 49.285,330.000 56.694 L 330.000 70.167 333.583 70.167 L 337.167 70.167 337.167 63.520 C 337.167 54.913,336.902 55.248,340.196 59.685 C 342.874 63.294,342.472 62.755,345.435 66.708 L 348.027 70.167 351.015 70.167 L 354.002 70.167 353.959 56.625 L 353.917 43.083 350.417 43.083 L 346.917 43.083 346.873 49.689 C 346.817 58.256,347.086 57.953,343.655 53.319 C 342.424 51.657,341.336 50.212,341.238 50.107 C 341.140 50.002,340.286 48.871,339.340 47.593 C 338.394 46.315,337.557 45.190,337.478 45.093 C 337.400 44.996,336.994 44.485,336.576 43.958 L 335.815 43.000 333.019 43.000 C 331.481 43.000,330.172 43.050,330.111 43.111 M360.333 56.582 L 360.333 70.167 369.670 70.167 L 379.008 70.167 378.962 67.125 L 378.917 64.083 373.431 64.039 C 366.958 63.987,367.499 64.187,367.503 61.855 C 367.506 59.365,367.003 59.592,372.660 59.534 L 377.500 59.486 377.500 56.493 L 377.500 53.500 372.673 53.500 C 367.008 53.500,367.500 53.720,367.500 51.183 C 367.500 49.008,367.041 49.167,373.326 49.167 L 378.508 49.167 378.462 46.125 L 378.417 43.083 369.375 43.040 L 360.333 42.997 360.333 56.582 M154.523 46.423 C 154.214 46.557,153.816 46.667,153.638 46.667 C 153.203 46.667,151.466 47.541,150.518 48.237 C 145.747 51.739,145.315 59.821,149.665 64.167 C 150.375 64.875,151.277 65.590,151.750 65.816 C 152.208 66.036,152.711 66.279,152.868 66.355 C 153.024 66.431,153.457 66.542,153.830 66.602 C 154.202 66.662,154.548 66.776,154.597 66.855 C 154.714 67.044,159.120 67.044,159.236 66.855 C 159.286 66.776,159.631 66.662,160.004 66.602 C 160.618 66.504,160.889 66.402,161.667 65.979 C 161.804 65.904,162.169 65.715,162.477 65.560 C 165.563 64.005,167.562 59.237,166.940 54.917 C 166.709 53.311,166.604 52.939,166.024 51.667 C 165.315 50.111,163.527 48.208,162.083 47.471 C 160.669 46.749,160.459 46.666,160.028 46.661 C 159.784 46.658,159.396 46.548,159.167 46.417 C 158.585 46.084,155.292 46.089,154.523 46.423 M92.000 51.726 L 92.000 57.000 95.730 57.000 C 98.668 57.000,99.586 56.947,100.058 56.750 C 100.387 56.613,100.846 56.500,101.078 56.500 C 101.310 56.500,101.500 56.430,101.500 56.345 C 101.500 56.259,101.662 56.138,101.859 56.075 C 104.340 55.288,105.026 50.268,102.940 48.169 C 101.535 46.756,101.025 46.632,96.244 46.537 L 92.000 46.452 92.000 51.726 M267.423 53.362 C 267.483 53.634,267.636 54.057,267.765 54.303 C 267.893 54.549,267.998 54.845,267.999 54.961 C 268.000 55.076,268.069 55.301,268.152 55.461 C 268.292 55.726,268.875 57.326,269.600 59.430 C 270.087 60.846,270.113 60.833,266.750 60.833 C 263.047 60.833,263.224 61.203,264.841 56.833 C 265.129 56.054,265.428 55.229,265.504 55.000 C 266.416 52.250,267.058 51.701,267.423 53.362 " stroke="none" fill="#050505" fill-rule="evenodd"></path><path id="path1" d="M0.000 56.167 L 0.000 112.333 200.000 112.333 L 400.000 112.333 400.000 56.167 L 400.000 0.000 200.000 0.000 L 0.000 0.000 0.000 56.167 M397.396 3.187 C 397.584 4.129,397.517 110.658,397.327 111.011 C 397.113 111.411,3.267 111.533,2.867 111.133 C 2.575 110.842,2.575 3.158,2.867 2.867 C 3.022 2.711,47.092 2.667,200.179 2.667 L 397.292 2.667 397.396 3.187 M6.542 6.110 C 6.376 6.177,6.333 16.498,6.333 56.931 L 6.333 107.667 200.167 107.667 L 394.001 107.667 393.959 56.875 L 393.917 6.083 200.333 6.055 C 93.862 6.039,6.656 6.064,6.542 6.110 M199.895 13.208 C 200.081 13.902,200.014 100.662,199.827 101.011 C 199.657 101.329,198.429 101.333,106.494 101.333 L 13.333 101.333 13.333 57.083 L 13.333 12.833 106.564 12.833 L 199.794 12.833 199.895 13.208 M300.500 42.583 C 300.890 42.721,301.420 42.833,301.678 42.833 C 301.936 42.833,302.190 42.903,302.242 42.987 C 302.294 43.072,302.561 43.190,302.835 43.250 C 305.632 43.865,309.557 47.382,310.740 50.333 C 310.905 50.746,311.116 51.247,311.209 51.447 C 311.611 52.314,311.519 52.333,306.980 52.333 L 302.782 52.333 301.908 51.542 C 300.733 50.477,300.708 50.461,299.716 50.111 C 298.011 49.510,294.791 49.782,293.820 50.609 C 293.675 50.732,293.497 50.833,293.423 50.833 C 293.248 50.833,291.923 52.177,291.780 52.500 C 291.719 52.637,291.602 52.862,291.521 53.000 C 290.052 55.491,290.592 59.744,292.635 61.757 C 294.940 64.030,299.491 64.107,301.885 61.914 C 302.223 61.604,302.500 61.296,302.500 61.230 C 302.500 61.164,302.620 60.977,302.766 60.815 C 303.286 60.241,302.919 60.167,299.563 60.167 C 295.318 60.167,295.667 60.436,295.667 57.157 L 295.667 54.492 296.107 54.324 C 296.644 54.120,311.572 54.183,311.778 54.390 C 312.230 54.846,311.688 60.968,311.142 61.575 C 311.064 61.662,311.000 61.831,311.000 61.950 C 311.000 62.179,310.013 64.359,309.846 64.500 C 309.791 64.546,309.543 64.898,309.294 65.283 C 307.914 67.412,305.115 69.394,302.333 70.211 C 301.829 70.359,301.079 70.578,300.667 70.698 C 299.676 70.987,294.254 70.987,293.965 70.699 C 293.856 70.589,293.575 70.500,293.342 70.501 C 292.199 70.503,289.038 69.032,287.504 67.785 C 284.128 65.040,282.603 61.557,282.597 56.583 C 282.591 50.534,284.970 46.466,290.042 43.853 C 290.569 43.582,291.224 43.311,291.498 43.250 C 291.772 43.190,292.039 43.072,292.091 42.987 C 292.144 42.903,292.426 42.828,292.718 42.821 C 293.011 42.814,293.512 42.707,293.833 42.583 C 294.696 42.251,299.558 42.251,300.500 42.583 M155.333 42.691 C 152.641 42.896,151.381 43.299,149.000 44.721 C 147.969 45.337,145.500 47.625,145.500 47.965 C 145.500 48.054,145.396 48.212,145.268 48.318 C 144.914 48.612,143.758 51.126,143.461 52.250 C 141.781 58.596,143.646 64.665,148.327 68.085 C 149.238 68.750,150.906 69.667,151.207 69.667 C 151.294 69.667,151.603 69.768,151.891 69.891 C 153.715 70.669,158.420 70.974,160.000 70.417 C 160.390 70.279,160.909 70.167,161.154 70.167 C 161.399 70.167,161.671 70.104,161.758 70.028 C 161.845 69.951,162.292 69.751,162.750 69.582 C 168.767 67.372,172.290 59.748,170.510 52.789 C 169.149 47.469,165.850 44.324,160.083 42.850 C 159.211 42.627,157.106 42.556,155.333 42.691 M212.126 56.573 C 212.160 67.388,212.125 70.257,211.959 70.362 C 211.604 70.588,204.431 70.531,204.200 70.300 C 203.987 70.087,203.892 43.641,204.102 43.094 C 204.193 42.858,204.661 42.833,208.144 42.872 L 212.083 42.917 212.126 56.573 M225.209 43.836 C 225.598 44.387,226.469 45.606,227.144 46.544 C 227.818 47.482,228.559 48.544,228.789 48.904 C 229.019 49.263,229.276 49.638,229.359 49.737 C 229.691 50.128,232.333 53.855,232.333 53.932 C 232.333 54.018,232.402 54.109,233.076 54.917 L 233.493 55.417 233.955 54.880 C 234.209 54.585,235.242 53.175,236.250 51.746 C 238.652 48.342,241.781 43.963,241.971 43.740 C 242.054 43.642,242.210 43.397,242.318 43.194 C 242.513 42.831,242.558 42.827,245.883 42.872 L 249.250 42.917 249.293 56.482 C 249.324 66.365,249.284 70.108,249.147 70.273 C 248.891 70.582,241.673 70.606,241.367 70.300 C 241.218 70.151,241.167 68.453,241.167 63.691 L 241.167 57.281 240.745 57.766 C 240.513 58.032,239.860 58.925,239.295 59.750 C 238.730 60.575,237.813 61.867,237.259 62.622 L 236.250 63.993 233.544 63.997 L 230.837 64.000 230.089 62.958 C 229.677 62.385,229.245 61.786,229.129 61.626 C 229.012 61.466,228.279 60.443,227.500 59.351 C 226.721 58.259,226.027 57.401,225.958 57.443 C 225.890 57.485,225.833 60.395,225.833 63.909 C 225.833 69.581,225.804 70.309,225.570 70.399 C 225.226 70.531,218.441 70.531,218.097 70.399 C 217.822 70.293,217.671 43.217,217.944 42.944 C 218.006 42.883,219.506 42.833,221.278 42.833 L 224.501 42.833 225.209 43.836 M270.952 43.208 C 271.048 43.415,271.257 43.921,271.417 44.333 C 271.576 44.746,271.771 45.233,271.849 45.417 C 271.927 45.600,272.145 46.163,272.333 46.667 C 272.522 47.171,272.740 47.733,272.818 47.917 C 272.896 48.100,273.091 48.587,273.250 49.000 C 273.409 49.413,273.603 49.900,273.680 50.083 C 273.848 50.485,275.279 54.213,275.535 54.917 C 275.635 55.192,275.808 55.642,275.919 55.917 C 276.030 56.192,276.236 56.717,276.375 57.083 C 276.875 58.397,277.209 59.255,277.346 59.583 C 277.423 59.767,277.831 60.817,278.254 61.917 C 278.676 63.017,279.212 64.404,279.446 65.000 C 279.679 65.596,279.984 66.383,280.124 66.750 C 280.264 67.117,280.481 67.653,280.606 67.942 C 280.731 68.231,280.833 68.541,280.833 68.631 C 280.833 68.721,280.945 69.010,281.082 69.273 C 281.716 70.487,281.673 70.500,276.903 70.500 C 272.752 70.500,272.333 70.417,272.333 69.589 C 272.333 69.364,272.000 68.494,271.646 67.794 C 271.566 67.635,271.500 67.394,271.500 67.258 C 271.500 66.746,270.857 66.667,266.709 66.667 C 262.050 66.667,262.204 66.628,261.742 67.917 C 261.577 68.375,261.389 68.825,261.324 68.917 C 261.259 69.008,261.153 69.328,261.089 69.626 C 260.912 70.455,260.679 70.500,256.525 70.500 C 251.819 70.500,251.859 70.512,252.394 69.275 C 252.519 68.986,252.744 68.431,252.894 68.042 C 253.044 67.652,253.289 67.015,253.439 66.625 C 253.589 66.235,253.807 65.692,253.923 65.417 C 254.039 65.142,254.246 64.579,254.384 64.167 C 254.617 63.472,254.829 62.919,255.183 62.083 C 255.261 61.900,255.478 61.337,255.667 60.833 C 255.855 60.329,256.073 59.767,256.151 59.583 C 256.229 59.400,256.424 58.913,256.583 58.500 C 256.743 58.087,256.937 57.600,257.015 57.417 C 257.094 57.233,257.312 56.671,257.500 56.167 C 257.688 55.663,257.909 55.100,257.991 54.917 C 258.073 54.733,258.343 54.021,258.592 53.333 C 258.840 52.646,259.136 51.858,259.249 51.583 C 259.609 50.708,259.964 49.802,260.749 47.750 C 261.170 46.650,261.580 45.600,261.661 45.417 C 261.741 45.233,261.938 44.708,262.099 44.250 C 262.621 42.756,262.363 42.833,266.831 42.833 C 270.760 42.833,270.778 42.835,270.952 43.208 M323.967 43.033 C 324.363 43.430,324.243 70.114,323.844 70.327 C 323.651 70.431,322.109 70.500,320.000 70.500 C 317.891 70.500,316.349 70.431,316.156 70.327 C 315.829 70.152,315.621 43.268,315.944 42.944 C 316.156 42.733,323.750 42.817,323.967 43.033 M336.809 43.548 C 337.080 43.942,337.571 44.598,337.902 45.007 C 338.702 45.997,338.676 45.963,339.338 46.917 C 339.656 47.375,339.961 47.788,340.016 47.833 C 340.070 47.879,340.781 48.817,341.594 49.917 C 342.408 51.017,343.244 52.103,343.453 52.332 C 343.662 52.560,343.833 52.798,343.833 52.861 C 343.833 52.925,343.927 53.075,344.042 53.196 C 344.156 53.318,344.700 54.017,345.250 54.750 L 346.250 56.083 346.333 49.500 L 346.417 42.917 350.322 42.872 C 353.334 42.837,354.257 42.875,354.361 43.039 C 354.592 43.404,354.533 70.067,354.300 70.300 C 353.892 70.708,347.910 70.568,347.513 70.142 C 347.190 69.796,342.744 63.831,341.770 62.437 C 341.506 62.059,341.237 61.712,341.173 61.667 C 341.109 61.621,340.392 60.683,339.581 59.583 C 338.148 57.641,337.887 57.341,337.625 57.336 C 337.556 57.334,337.500 60.250,337.500 63.816 C 337.500 69.573,337.471 70.309,337.236 70.399 C 336.893 70.531,330.107 70.531,329.764 70.399 C 329.489 70.293,329.338 43.217,329.611 42.944 C 329.672 42.883,331.206 42.833,333.020 42.833 L 336.317 42.833 336.809 43.548 M378.962 46.105 L 379.007 49.293 378.629 49.394 C 378.420 49.450,375.944 49.496,373.125 49.498 L 368.000 49.500 368.003 51.125 C 368.006 53.354,367.527 53.154,373.008 53.206 L 377.750 53.250 377.795 56.395 C 377.827 58.574,377.782 59.611,377.650 59.770 C 377.496 59.956,376.547 60.000,372.730 60.000 L 368.000 60.000 368.003 61.708 C 368.006 64.046,367.400 63.822,373.842 63.873 L 379.417 63.917 379.462 66.999 C 379.503 69.751,379.477 70.105,379.222 70.291 C 378.921 70.511,360.824 70.614,360.264 70.399 C 360.026 70.308,360.000 68.934,360.000 56.564 L 360.000 42.831 369.458 42.874 L 378.917 42.917 378.962 46.105 M59.042 43.110 C 58.877 43.177,58.833 46.048,58.833 56.681 L 58.833 70.167 60.417 70.167 L 62.000 70.167 62.000 64.200 C 62.000 59.781,62.052 58.181,62.200 58.033 C 62.342 57.891,63.353 57.833,65.688 57.833 L 68.975 57.833 69.705 59.042 C 70.107 59.706,70.604 60.587,70.809 61.000 C 71.015 61.413,71.252 61.862,71.337 62.000 C 71.997 63.074,72.833 64.521,72.833 64.590 C 72.833 64.636,73.022 64.973,73.253 65.338 C 73.484 65.704,74.022 66.659,74.449 67.460 C 74.876 68.261,75.401 69.198,75.615 69.542 L 76.004 70.167 77.921 70.167 L 79.838 70.167 79.419 69.503 C 79.188 69.138,79.000 68.811,79.000 68.776 C 79.000 68.741,78.362 67.602,77.583 66.245 C 76.804 64.888,76.167 63.754,76.167 63.725 C 76.167 63.696,75.867 63.182,75.500 62.583 C 75.133 61.984,74.833 61.459,74.833 61.416 C 74.833 61.373,74.615 60.981,74.348 60.544 C 73.699 59.482,72.901 58.071,72.470 57.228 L 72.119 56.538 73.111 55.561 C 74.278 54.411,74.931 53.320,75.745 51.161 C 76.071 50.293,76.405 49.433,76.485 49.250 C 76.565 49.067,76.946 48.054,77.330 47.000 C 77.715 45.946,78.178 44.720,78.360 44.275 C 78.844 43.090,78.755 43.000,77.102 43.000 C 75.634 43.000,75.167 43.089,75.167 43.368 C 75.167 43.459,75.063 43.769,74.937 44.058 C 74.811 44.347,74.579 44.958,74.421 45.417 C 74.264 45.875,74.030 46.486,73.901 46.775 C 73.772 47.064,73.667 47.384,73.667 47.486 C 73.667 47.588,73.599 47.801,73.517 47.961 C 73.435 48.120,73.247 48.569,73.100 48.958 C 72.059 51.721,71.908 52.023,71.105 52.942 C 69.864 54.363,68.831 54.671,64.934 54.782 C 62.856 54.841,62.254 54.809,62.145 54.637 C 62.068 54.516,62.004 51.848,62.003 48.708 L 62.000 43.000 60.625 43.013 C 59.869 43.020,59.156 43.064,59.042 43.110 M88.444 43.111 C 88.383 43.172,88.333 49.285,88.333 56.694 L 88.333 70.167 89.997 70.167 L 91.662 70.167 91.706 65.375 L 91.750 60.583 94.667 60.542 C 96.271 60.519,97.659 60.557,97.751 60.625 C 98.023 60.828,99.333 62.638,99.333 62.812 C 99.333 62.900,99.390 62.997,99.458 63.028 C 99.527 63.058,99.958 63.646,100.417 64.333 C 100.875 65.021,101.288 65.621,101.333 65.667 C 101.379 65.712,101.997 66.612,102.707 67.667 C 103.417 68.721,104.102 69.717,104.230 69.880 C 104.432 70.140,104.703 70.172,106.399 70.130 L 108.336 70.083 107.314 68.583 C 104.225 64.050,103.167 62.454,103.167 62.331 C 103.167 62.256,103.110 62.169,103.042 62.139 C 102.973 62.108,102.672 61.724,102.373 61.284 C 101.740 60.354,101.828 59.934,102.695 59.744 C 102.987 59.680,103.606 59.399,104.071 59.120 C 110.156 55.473,108.886 45.051,102.167 43.491 C 101.846 43.416,101.283 43.277,100.917 43.182 C 100.183 42.991,88.630 42.925,88.444 43.111 M118.111 43.111 C 118.050 43.172,118.000 49.285,118.000 56.694 L 118.000 70.167 126.417 70.167 L 134.833 70.167 134.833 68.750 L 134.833 67.333 128.292 67.331 C 124.694 67.329,121.655 67.268,121.539 67.194 C 121.375 67.090,121.338 66.035,121.372 62.488 L 121.417 57.917 127.465 57.873 L 133.513 57.829 133.465 56.373 L 133.417 54.917 127.417 54.833 L 121.417 54.750 121.417 50.417 L 121.417 46.083 127.875 46.040 L 134.333 45.996 134.333 44.498 L 134.333 43.000 126.278 43.000 C 121.847 43.000,118.172 43.050,118.111 43.111 M160.083 46.279 C 160.542 46.417,161.153 46.635,161.442 46.765 C 161.731 46.894,162.049 47.000,162.150 47.000 C 162.251 47.000,162.333 47.075,162.333 47.167 C 162.333 47.258,162.416 47.333,162.518 47.333 C 163.298 47.333,166.500 50.851,166.500 51.709 C 166.500 51.832,166.584 52.017,166.687 52.120 C 166.789 52.223,166.943 52.631,167.028 53.028 C 167.113 53.425,167.262 54.125,167.359 54.583 C 167.575 55.599,167.442 59.022,167.156 59.833 C 166.503 61.680,165.847 62.963,165.212 63.633 C 165.100 63.752,164.912 63.979,164.795 64.138 C 164.537 64.489,163.013 65.745,162.667 65.892 C 162.529 65.950,162.304 66.065,162.167 66.147 C 160.781 66.975,159.473 67.250,156.917 67.250 C 154.550 67.250,153.973 67.152,152.250 66.459 C 150.847 65.894,148.000 63.554,148.000 62.966 C 148.000 62.889,147.827 62.547,147.615 62.205 C 145.047 58.053,146.111 51.351,149.828 48.266 C 152.388 46.141,156.791 45.288,160.083 46.279 M100.333 46.332 C 105.902 47.834,106.309 55.095,100.926 56.922 C 100.331 57.124,99.372 57.164,95.969 57.128 L 91.750 57.083 91.706 51.770 C 91.673 47.772,91.712 46.396,91.866 46.211 C 92.121 45.903,99.115 46.003,100.333 46.332 M266.469 53.622 C 266.324 53.967,266.164 54.400,266.115 54.583 C 266.066 54.767,265.790 55.554,265.501 56.333 C 265.213 57.112,264.866 58.050,264.731 58.417 C 264.595 58.783,264.383 59.402,264.258 59.792 L 264.033 60.500 266.750 60.500 L 269.467 60.500 269.245 59.792 C 268.935 58.807,268.651 58.008,268.389 57.391 C 268.267 57.103,268.167 56.783,268.167 56.681 C 268.167 56.579,268.101 56.365,268.020 56.206 C 267.683 55.538,267.333 54.641,267.333 54.441 C 267.333 54.323,267.198 53.949,267.034 53.610 L 266.734 52.993 266.469 53.622 " stroke="none" fill="#fbfbfb" fill-rule="evenodd"></path><path id="path2" d="M206.208 42.958 C 207.194 42.987,208.806 42.987,209.792 42.958 C 210.777 42.928,209.971 42.904,208.000 42.904 C 206.029 42.904,205.223 42.928,206.208 42.958 M219.533 42.957 C 220.331 42.988,221.681 42.988,222.533 42.958 C 223.386 42.927,222.733 42.902,221.083 42.902 C 219.433 42.902,218.736 42.927,219.533 42.957 M244.375 42.957 C 245.177 42.988,246.490 42.988,247.292 42.957 C 248.094 42.927,247.438 42.902,245.833 42.902 C 244.229 42.902,243.573 42.927,244.375 42.957 M264.884 42.958 C 265.967 42.987,267.692 42.987,268.718 42.958 C 269.744 42.928,268.858 42.905,266.750 42.905 C 264.642 42.905,263.802 42.929,264.884 42.958 M318.208 42.958 C 319.194 42.987,320.806 42.987,321.792 42.958 C 322.777 42.928,321.971 42.904,320.000 42.904 C 318.029 42.904,317.223 42.928,318.208 42.958 M331.542 42.957 C 332.344 42.988,333.656 42.988,334.458 42.957 C 335.260 42.927,334.604 42.902,333.000 42.902 C 331.396 42.902,330.740 42.927,331.542 42.957 M348.717 42.958 C 349.708 42.987,351.283 42.987,352.217 42.958 C 353.152 42.928,352.342 42.904,350.417 42.904 C 348.492 42.904,347.727 42.928,348.717 42.958 M62.241 48.667 C 62.241 51.737,62.264 52.994,62.291 51.458 C 62.319 49.923,62.319 47.410,62.291 45.875 C 62.264 44.340,62.241 45.596,62.241 48.667 M204.206 56.615 C 204.184 64.058,204.223 70.182,204.292 70.224 C 204.405 70.294,204.404 60.525,204.289 47.917 C 204.265 45.258,204.227 49.173,204.206 56.615 M249.000 56.700 C 248.954 64.189,248.973 70.260,249.043 70.191 C 249.112 70.121,249.149 63.994,249.126 56.574 L 249.083 43.083 249.000 56.700 M316.079 56.667 C 316.079 64.137,316.100 67.194,316.125 63.458 C 316.150 59.723,316.150 53.610,316.125 49.875 C 316.100 46.140,316.079 49.196,316.079 56.667 M329.706 56.615 C 329.684 64.058,329.723 70.182,329.792 70.224 C 329.905 70.294,329.904 60.525,329.789 47.917 C 329.765 45.258,329.727 49.173,329.706 56.615 M346.576 49.500 C 346.576 53.029,346.598 54.473,346.625 52.708 C 346.652 50.944,346.652 48.056,346.625 46.292 C 346.598 44.527,346.576 45.971,346.576 49.500 M354.167 56.700 C 354.121 64.189,354.140 70.260,354.209 70.191 C 354.279 70.121,354.316 63.994,354.293 56.574 L 354.250 43.083 354.167 56.700 M378.666 46.200 C 378.621 47.915,378.641 49.259,378.712 49.188 C 378.783 49.117,378.821 47.714,378.795 46.071 L 378.749 43.083 378.666 46.200 M155.460 46.118 C 155.668 46.158,155.968 46.156,156.127 46.115 C 156.286 46.073,156.117 46.040,155.750 46.042 C 155.383 46.044,155.253 46.078,155.460 46.118 M157.708 46.115 C 157.869 46.157,158.131 46.157,158.292 46.115 C 158.452 46.073,158.321 46.039,158.000 46.039 C 157.679 46.039,157.548 46.073,157.708 46.115 M91.942 46.292 C 91.899 46.360,92.851 46.397,94.057 46.373 C 98.164 46.292,98.589 46.233,95.302 46.200 C 93.496 46.182,91.985 46.223,91.942 46.292 M308.000 46.750 C 308.311 47.071,308.603 47.333,308.649 47.333 C 308.695 47.333,308.478 47.071,308.167 46.750 C 307.856 46.429,307.564 46.167,307.518 46.167 C 307.472 46.167,307.689 46.429,308.000 46.750 M104.381 51.583 C 104.382 52.042,104.415 52.209,104.453 51.956 C 104.491 51.703,104.490 51.328,104.451 51.123 C 104.411 50.918,104.380 51.125,104.381 51.583 M108.220 51.833 C 108.220 52.429,108.250 52.673,108.287 52.375 C 108.324 52.077,108.324 51.590,108.287 51.292 C 108.250 50.994,108.220 51.237,108.220 51.833 M300.136 54.458 C 302.274 54.485,305.724 54.485,307.803 54.458 C 309.882 54.432,308.133 54.410,303.917 54.410 C 299.700 54.410,297.999 54.432,300.136 54.458 M295.901 57.083 C 295.901 58.550,295.927 59.128,295.957 58.367 C 295.988 57.606,295.988 56.406,295.957 55.700 C 295.926 54.994,295.901 55.617,295.901 57.083 M282.729 56.583 C 282.729 57.592,282.757 57.983,282.790 57.452 C 282.823 56.922,282.823 56.097,282.789 55.619 C 282.756 55.141,282.729 55.575,282.729 56.583 M290.381 56.583 C 290.382 57.042,290.415 57.209,290.453 56.956 C 290.491 56.703,290.490 56.328,290.451 56.123 C 290.411 55.918,290.380 56.125,290.381 56.583 M241.370 63.615 C 241.350 67.208,241.390 70.182,241.458 70.224 C 241.572 70.295,241.570 65.348,241.453 59.417 C 241.427 58.133,241.390 60.023,241.370 63.615 M62.246 58.208 C 62.117 58.560,62.075 70.325,62.204 70.196 C 62.314 70.086,62.478 58.000,62.370 58.000 C 62.344 58.000,62.288 58.094,62.246 58.208 M372.833 59.667 L 368.083 59.758 372.782 59.796 C 375.776 59.820,377.518 59.773,377.583 59.667 C 377.640 59.575,377.663 59.517,377.635 59.538 C 377.607 59.559,375.446 59.617,372.833 59.667 M297.958 59.958 C 298.898 59.987,300.435 59.987,301.375 59.958 C 302.315 59.928,301.546 59.904,299.667 59.904 C 297.787 59.904,297.019 59.928,297.958 59.958 M379.236 67.167 C 379.236 68.862,379.261 69.556,379.291 68.708 C 379.321 67.860,379.321 66.473,379.291 65.625 C 379.261 64.777,379.236 65.471,379.236 67.167 M264.718 66.458 C 265.892 66.487,267.767 66.487,268.885 66.458 C 270.002 66.429,269.042 66.405,266.750 66.406 C 264.458 66.406,263.544 66.429,264.718 66.458 M122.303 70.458 C 124.624 70.484,128.374 70.484,130.637 70.458 C 132.899 70.432,131.000 70.411,126.417 70.411 C 121.833 70.411,119.982 70.432,122.303 70.458 M154.795 70.787 C 155.094 70.825,155.544 70.824,155.795 70.786 C 156.045 70.748,155.800 70.717,155.250 70.718 C 154.700 70.719,154.495 70.750,154.795 70.787 M158.042 70.786 C 158.294 70.824,158.706 70.824,158.958 70.786 C 159.210 70.748,159.004 70.717,158.500 70.717 C 157.996 70.717,157.790 70.748,158.042 70.786 M60.208 101.125 C 85.760 101.148,127.573 101.148,153.125 101.125 C 178.677 101.102,157.771 101.083,106.667 101.083 C 55.563 101.083,34.656 101.102,60.208 101.125 " stroke="none" fill="#848484" fill-rule="evenodd"></path><path id="path3" d="M2.867 2.867 C 2.575 3.158,2.575 110.842,2.867 111.133 C 3.267 111.533,397.113 111.411,397.327 111.011 C 397.446 110.790,397.487 93.757,397.459 56.969 L 397.418 3.250 397.333 57.167 C 397.287 86.821,397.230 111.102,397.208 111.125 C 397.116 111.218,3.340 111.159,3.097 111.066 C 2.726 110.923,2.688 3.328,3.059 3.020 C 3.226 2.882,54.733 2.844,200.309 2.875 C 308.672 2.898,397.333 2.860,397.333 2.792 C 397.333 2.564,3.094 2.639,2.867 2.867 M6.111 6.111 C 5.785 6.437,5.995 107.652,6.322 107.827 C 6.765 108.064,393.770 108.070,393.917 107.833 C 393.985 107.722,329.363 107.667,200.177 107.667 L 6.333 107.667 6.333 56.931 C 6.333 16.498,6.376 6.177,6.542 6.110 C 6.678 6.056,6.658 6.022,6.486 6.013 C 6.341 6.006,6.172 6.050,6.111 6.111 M394.000 56.800 L 394.083 107.583 394.125 56.925 C 394.148 29.063,394.111 6.211,394.042 6.142 C 393.973 6.073,393.954 28.869,394.000 56.800 M13.333 57.083 L 13.333 101.333 106.494 101.333 C 198.487 101.333,199.657 101.329,199.828 101.010 C 199.946 100.789,199.987 86.916,199.958 56.969 L 199.916 13.250 199.875 57.008 C 199.843 90.774,199.788 100.812,199.633 100.967 C 199.401 101.199,14.074 101.261,13.708 101.029 C 13.542 100.923,13.508 92.005,13.541 56.990 L 13.583 13.083 106.708 13.083 C 157.927 13.083,199.833 13.027,199.833 12.958 C 199.833 12.890,157.871 12.833,106.583 12.833 L 13.333 12.833 13.333 57.083 M293.833 42.598 L 293.250 42.838 293.833 42.712 C 294.154 42.643,295.654 42.587,297.167 42.587 C 298.679 42.587,300.179 42.643,300.500 42.712 L 301.083 42.838 300.500 42.598 C 300.074 42.423,299.176 42.359,297.167 42.359 C 295.158 42.359,294.259 42.423,293.833 42.598 M153.417 42.758 C 152.753 42.989,152.752 42.990,153.333 42.897 C 153.654 42.845,154.554 42.748,155.333 42.680 L 156.750 42.557 155.417 42.542 C 154.664 42.533,153.793 42.627,153.417 42.758 M158.500 42.676 C 159.279 42.742,160.142 42.842,160.417 42.899 C 160.877 42.994,160.871 42.984,160.333 42.764 C 159.979 42.619,159.227 42.532,158.417 42.541 L 157.083 42.557 158.500 42.676 M88.367 43.033 C 88.214 43.186,88.176 46.412,88.207 56.742 L 88.247 70.250 88.332 56.667 L 88.417 43.083 93.667 42.996 L 98.917 42.910 93.742 42.871 C 89.895 42.843,88.515 42.885,88.367 43.033 M118.019 43.060 C 117.882 43.225,117.843 46.947,117.874 56.768 L 117.917 70.250 126.500 70.250 L 135.083 70.250 135.083 68.750 L 135.083 67.250 128.333 67.167 L 121.583 67.083 121.583 62.583 L 121.583 58.083 127.500 57.996 L 133.417 57.908 127.417 57.912 L 121.417 57.917 121.372 62.488 C 121.338 66.035,121.375 67.090,121.539 67.194 C 121.655 67.268,124.694 67.329,128.292 67.331 L 134.833 67.333 134.833 68.750 L 134.833 70.167 126.416 70.167 L 117.998 70.167 118.041 56.625 L 118.083 43.083 126.208 43.040 L 134.333 42.997 134.333 44.498 C 134.333 45.388,134.401 46.000,134.500 46.000 C 134.804 46.000,134.710 43.052,134.403 42.934 C 133.803 42.704,118.215 42.824,118.019 43.060 M204.101 43.097 C 203.892 43.642,203.988 70.088,204.200 70.300 C 204.431 70.531,211.604 70.588,211.959 70.362 C 212.302 70.144,212.177 42.928,211.833 42.903 C 211.688 42.892,211.671 42.914,211.793 42.955 C 211.959 43.010,211.993 45.832,211.959 56.637 L 211.917 70.250 208.083 70.250 L 204.250 70.250 204.207 56.768 C 204.176 46.947,204.216 43.225,204.353 43.060 C 204.470 42.919,204.477 42.833,204.372 42.833 C 204.278 42.833,204.157 42.952,204.101 43.097 M217.910 43.042 C 217.866 43.156,217.850 49.362,217.874 56.833 L 217.917 70.417 218.000 56.625 C 218.046 49.040,218.062 42.833,218.036 42.833 C 218.011 42.833,217.954 42.927,217.910 43.042 M224.167 42.940 C 224.304 42.978,224.979 43.808,225.667 44.784 C 227.182 46.937,229.962 50.861,231.922 53.613 C 233.652 56.044,233.400 56.074,235.444 53.191 C 236.331 51.940,237.779 49.904,238.661 48.667 C 239.543 47.429,240.804 45.655,241.463 44.723 C 242.121 43.792,242.756 42.992,242.872 42.945 C 243.004 42.892,242.976 42.855,242.798 42.846 C 242.640 42.839,242.424 42.997,242.317 43.198 C 242.209 43.398,242.054 43.642,241.971 43.740 C 241.781 43.963,238.652 48.342,236.250 51.746 C 235.242 53.175,234.209 54.585,233.955 54.880 L 233.493 55.417 233.076 54.917 C 232.402 54.109,232.333 54.018,232.333 53.932 C 232.333 53.855,229.691 50.128,229.359 49.737 C 229.276 49.638,229.019 49.263,228.789 48.904 C 228.559 48.544,227.818 47.482,227.144 46.544 C 226.469 45.606,225.598 44.387,225.209 43.836 C 224.774 43.220,224.388 42.841,224.209 42.853 C 223.989 42.867,223.979 42.889,224.167 42.940 M248.877 43.027 C 249.153 43.237,249.167 44.033,249.127 56.750 L 249.083 70.250 245.250 70.250 L 241.417 70.250 241.373 63.625 C 241.349 59.981,241.270 57.000,241.197 57.000 C 241.124 57.000,240.725 57.469,240.311 58.042 C 239.896 58.615,238.785 60.152,237.841 61.458 L 236.125 63.833 233.588 63.833 C 231.384 63.833,231.017 63.795,230.788 63.542 C 230.528 63.253,229.024 61.178,227.083 58.427 C 226.533 57.648,226.008 57.033,225.917 57.060 C 225.811 57.092,225.719 59.519,225.667 63.680 L 225.583 70.250 221.833 70.338 L 218.083 70.426 221.695 70.463 C 223.681 70.483,225.425 70.454,225.570 70.399 C 225.804 70.309,225.833 69.581,225.833 63.909 C 225.833 60.395,225.890 57.485,225.958 57.443 C 226.027 57.401,226.721 58.259,227.500 59.351 C 228.279 60.443,229.012 61.466,229.129 61.626 C 229.245 61.786,229.677 62.385,230.089 62.958 L 230.837 64.000 233.544 63.997 L 236.250 63.993 237.259 62.622 C 237.813 61.867,238.730 60.575,239.295 59.750 C 239.860 58.925,240.513 58.032,240.745 57.766 L 241.167 57.281 241.167 63.691 C 241.167 68.453,241.218 70.151,241.367 70.300 C 241.673 70.606,248.891 70.582,249.147 70.273 C 249.541 69.798,249.315 42.933,248.917 42.862 C 248.605 42.807,248.602 42.818,248.877 43.027 M262.637 43.125 C 262.501 43.285,262.259 43.792,262.099 44.250 C 261.938 44.708,261.741 45.233,261.661 45.417 C 261.580 45.600,261.170 46.650,260.749 47.750 C 259.867 50.055,259.518 50.948,259.317 51.417 C 258.939 52.296,258.167 54.428,258.172 54.580 C 258.184 54.978,258.347 54.572,262.120 44.750 C 262.437 43.925,262.774 43.156,262.868 43.042 C 262.963 42.927,263.006 42.833,262.963 42.833 C 262.920 42.833,262.774 42.965,262.637 43.125 M270.627 43.042 C 270.719 43.156,271.250 44.413,271.806 45.833 C 272.747 48.238,274.221 52.038,278.207 62.333 C 280.297 67.732,280.749 68.837,280.800 68.683 C 280.831 68.591,280.749 68.268,280.617 67.966 C 280.486 67.664,280.264 67.117,280.124 66.750 C 279.984 66.383,279.679 65.596,279.446 65.000 C 279.212 64.404,278.676 63.017,278.254 61.917 C 277.831 60.817,277.423 59.767,277.346 59.583 C 277.269 59.400,277.085 58.931,276.937 58.542 C 276.437 57.230,276.123 56.419,275.919 55.917 C 275.808 55.642,275.635 55.192,275.535 54.917 C 275.279 54.213,273.848 50.485,273.680 50.083 C 273.603 49.900,273.409 49.413,273.250 49.000 C 273.091 48.587,272.896 48.100,272.818 47.917 C 272.740 47.733,272.522 47.171,272.333 46.667 C 272.145 46.163,271.927 45.600,271.849 45.417 C 271.771 45.233,271.576 44.746,271.417 44.333 C 270.963 43.159,270.789 42.833,270.618 42.833 C 270.522 42.833,270.526 42.916,270.627 43.042 M291.833 43.097 C 291.293 43.397,291.572 43.393,292.417 43.088 C 292.927 42.904,292.985 42.850,292.667 42.857 C 292.438 42.862,292.063 42.970,291.833 43.097 M301.917 43.088 C 302.784 43.400,303.044 43.398,302.439 43.082 C 302.177 42.945,301.802 42.837,301.606 42.841 C 301.376 42.845,301.485 42.933,301.917 43.088 M315.944 42.944 C 315.621 43.268,315.829 70.152,316.156 70.327 C 316.349 70.431,317.891 70.500,320.000 70.500 C 322.109 70.500,323.651 70.431,323.844 70.327 C 324.291 70.088,324.358 43.366,323.913 42.997 C 323.773 42.881,323.610 42.834,323.552 42.893 C 323.493 42.952,323.532 43.000,323.640 43.000 C 323.788 43.000,323.825 46.292,323.793 56.625 L 323.750 70.250 320.250 70.297 C 318.325 70.323,316.581 70.303,316.375 70.252 L 316.000 70.160 316.000 56.672 C 316.000 44.001,316.018 43.173,316.292 43.013 C 316.539 42.869,316.543 42.843,316.319 42.838 C 316.174 42.836,316.006 42.883,315.944 42.944 M329.611 42.944 C 329.338 43.217,329.489 70.293,329.764 70.399 C 329.909 70.454,331.652 70.483,333.639 70.463 L 337.250 70.426 333.500 70.338 L 329.750 70.250 329.707 56.750 C 329.667 44.206,329.684 43.235,329.947 43.042 C 330.183 42.868,330.188 42.833,329.976 42.833 C 329.837 42.833,329.672 42.883,329.611 42.944 M336.028 43.005 C 336.180 43.095,338.530 46.130,341.250 49.751 C 343.970 53.373,346.264 56.293,346.347 56.241 C 346.435 56.187,346.500 53.405,346.500 49.665 C 346.500 43.672,346.522 43.170,346.792 43.002 C 347.058 42.837,347.055 42.825,346.750 42.871 C 346.425 42.920,346.415 43.081,346.333 49.502 L 346.250 56.083 345.250 54.750 C 344.700 54.017,344.156 53.318,344.042 53.196 C 343.927 53.075,343.833 52.925,343.833 52.861 C 343.833 52.798,343.662 52.560,343.453 52.332 C 343.244 52.103,342.408 51.017,341.594 49.917 C 340.781 48.817,340.070 47.879,340.016 47.833 C 339.961 47.788,339.656 47.375,339.338 46.917 C 338.676 45.963,338.702 45.997,337.902 45.007 C 337.571 44.598,337.080 43.942,336.809 43.548 C 336.539 43.155,336.190 42.836,336.034 42.838 C 335.771 42.843,335.770 42.855,336.028 43.005 M354.053 43.042 C 354.316 43.235,354.333 44.206,354.293 56.750 L 354.250 70.250 351.051 70.295 L 347.852 70.340 346.301 68.229 C 345.448 67.068,344.445 65.735,344.073 65.267 C 343.700 64.799,342.255 62.873,340.862 60.985 C 339.469 59.098,338.147 57.383,337.926 57.175 L 337.522 56.796 337.421 57.356 C 337.366 57.665,337.343 60.729,337.371 64.167 L 337.421 70.417 337.460 63.875 C 337.482 60.277,337.556 57.334,337.625 57.336 C 337.887 57.341,338.148 57.641,339.581 59.583 C 340.392 60.683,341.109 61.621,341.173 61.667 C 341.237 61.712,341.506 62.059,341.770 62.437 C 342.744 63.831,347.190 69.796,347.513 70.142 C 347.910 70.568,353.892 70.708,354.300 70.300 C 354.512 70.088,354.608 43.642,354.399 43.097 C 354.343 42.952,354.179 42.833,354.034 42.833 C 353.803 42.833,353.806 42.860,354.053 43.042 M360.039 56.625 C 360.061 64.210,360.098 68.204,360.122 65.500 C 360.237 52.660,360.238 42.833,360.125 42.833 C 360.056 42.833,360.018 49.040,360.039 56.625 M378.632 43.041 C 378.796 43.238,378.836 44.036,378.799 46.318 C 378.772 47.977,378.808 49.334,378.879 49.334 C 379.147 49.333,378.938 42.951,378.667 42.862 C 378.458 42.793,378.452 42.822,378.632 43.041 M58.707 56.625 L 58.748 70.250 58.792 56.759 C 58.826 46.221,58.881 43.240,59.043 43.137 C 59.190 43.043,59.165 43.004,58.958 43.003 C 58.683 43.000,58.669 43.744,58.707 56.625 M62.036 48.611 C 62.016 51.743,62.046 54.425,62.101 54.570 C 62.214 54.864,66.919 54.950,67.583 54.669 C 67.771 54.590,66.699 54.570,65.125 54.623 C 63.590 54.676,62.318 54.688,62.299 54.651 C 62.280 54.614,62.222 51.958,62.169 48.750 L 62.073 42.917 62.036 48.611 M74.898 43.601 C 74.760 43.932,74.687 44.242,74.736 44.291 C 74.822 44.378,75.167 43.615,75.167 43.336 C 75.167 43.258,75.260 43.157,75.375 43.110 C 75.536 43.045,75.534 43.023,75.366 43.013 C 75.247 43.006,75.037 43.271,74.898 43.601 M78.595 43.220 C 78.647 43.356,78.541 43.831,78.360 44.275 C 77.578 46.189,76.624 48.846,76.693 48.916 C 76.772 48.995,78.894 43.449,78.871 43.222 C 78.864 43.150,78.778 43.065,78.679 43.032 C 78.580 42.999,78.542 43.083,78.595 43.220 M101.000 43.195 C 102.120 43.504,102.663 43.542,101.917 43.258 C 101.550 43.119,101.063 43.012,100.833 43.020 C 100.487 43.032,100.516 43.061,101.000 43.195 M151.583 43.256 C 150.910 43.564,151.313 43.565,152.023 43.257 C 152.331 43.123,152.471 43.016,152.333 43.020 C 152.196 43.024,151.858 43.130,151.583 43.256 M161.750 43.273 C 163.433 43.918,163.823 44.109,164.917 44.819 C 167.760 46.664,169.764 49.529,170.522 52.833 C 170.638 53.337,170.761 53.616,170.796 53.453 C 171.004 52.481,169.334 48.906,167.833 47.110 C 166.303 45.279,162.629 42.963,161.328 43.009 C 161.193 43.013,161.383 43.132,161.750 43.273 M290.029 43.828 C 288.640 44.554,288.622 44.739,290.007 44.063 C 291.397 43.383,291.489 43.327,291.153 43.349 C 291.023 43.358,290.517 43.574,290.029 43.828 M303.017 43.406 C 303.146 43.535,304.667 44.157,304.667 44.081 C 304.667 43.982,303.314 43.333,303.108 43.333 C 303.018 43.333,302.977 43.366,303.017 43.406 M103.000 43.750 C 103.548 44.063,103.819 44.067,103.407 43.755 C 103.229 43.621,102.971 43.511,102.833 43.511 C 102.688 43.512,102.758 43.612,103.000 43.750 M149.916 43.974 C 143.931 47.151,140.872 55.546,143.469 61.667 C 143.687 62.180,143.725 61.843,143.513 61.284 C 142.937 59.768,142.679 56.131,143.015 54.260 C 143.426 51.971,144.601 48.872,145.268 48.318 C 145.396 48.212,145.500 48.054,145.500 47.965 C 145.500 47.407,149.628 44.000,150.304 44.000 C 150.377 44.000,150.582 43.890,150.760 43.755 C 151.262 43.375,150.837 43.486,149.916 43.974 M103.917 44.118 C 104.008 44.204,104.421 44.531,104.833 44.845 C 109.382 48.310,108.981 56.292,104.117 59.082 C 103.678 59.334,103.353 59.575,103.395 59.618 C 103.545 59.768,105.331 58.501,106.066 57.723 C 109.535 54.051,108.546 46.386,104.328 44.254 C 104.010 44.093,103.825 44.032,103.917 44.118 M305.583 44.694 C 307.749 46.050,309.842 48.519,310.680 50.709 C 311.262 52.230,311.427 52.167,306.870 52.167 L 302.897 52.167 302.407 51.698 C 301.618 50.944,300.667 50.278,300.667 50.480 C 300.667 50.583,300.746 50.667,300.843 50.667 C 300.940 50.667,301.416 51.042,301.901 51.500 L 302.782 52.333 306.980 52.333 C 311.519 52.333,311.611 52.314,311.209 51.447 C 311.116 51.247,310.905 50.746,310.740 50.333 C 309.867 48.156,306.093 44.150,304.932 44.170 C 304.832 44.172,305.125 44.408,305.583 44.694 M73.239 48.041 C 71.476 52.754,70.483 54.040,68.333 54.387 C 67.934 54.452,67.936 54.456,68.381 54.477 C 69.074 54.511,70.374 53.779,71.104 52.943 C 71.908 52.023,72.059 51.721,73.100 48.958 C 73.247 48.569,73.435 48.120,73.517 47.961 C 73.599 47.801,73.667 47.588,73.667 47.486 C 73.667 47.384,73.772 47.064,73.901 46.775 C 74.325 45.824,74.716 44.661,74.638 44.582 C 74.595 44.540,73.966 46.096,73.239 48.041 M287.750 45.208 C 286.616 46.110,285.085 47.825,284.514 48.833 C 283.580 50.483,282.825 52.508,282.843 53.313 C 282.849 53.554,283.003 53.188,283.185 52.500 C 283.895 49.820,285.626 47.141,287.677 45.548 C 288.221 45.126,288.667 44.754,288.667 44.723 C 288.667 44.564,288.350 44.731,287.750 45.208 M156.627 45.951 C 156.834 45.991,157.134 45.990,157.294 45.948 C 157.453 45.906,157.283 45.874,156.917 45.875 C 156.550 45.877,156.420 45.911,156.627 45.951 M91.875 46.186 C 91.642 46.426,91.561 56.915,91.792 57.058 C 91.860 57.100,91.917 54.686,91.917 51.692 L 91.917 46.250 95.250 46.250 C 97.083 46.250,99.033 46.305,99.583 46.373 C 100.412 46.475,100.498 46.464,100.083 46.311 C 99.310 46.024,92.138 45.915,91.875 46.186 M121.408 46.211 C 121.364 46.328,121.347 48.296,121.372 50.586 L 121.417 54.750 127.417 54.833 L 133.417 54.917 133.510 56.417 L 133.604 57.917 133.635 56.479 C 133.678 54.529,134.180 54.678,127.402 54.627 L 121.583 54.583 121.539 50.377 L 121.494 46.171 127.872 46.125 L 134.250 46.079 127.870 46.040 C 122.842 46.008,121.472 46.045,121.408 46.211 M153.750 46.270 C 153.193 46.541,153.476 46.517,154.667 46.193 C 155.249 46.034,155.249 46.034,154.750 46.031 C 154.475 46.029,154.025 46.137,153.750 46.270 M159.000 46.177 C 160.370 46.502,160.639 46.525,160.000 46.264 C 159.679 46.133,159.192 46.028,158.917 46.032 C 158.424 46.038,158.425 46.040,159.000 46.177 M101.578 46.928 C 102.622 47.446,103.418 48.206,103.924 49.167 C 104.140 49.579,104.321 49.821,104.326 49.705 C 104.359 48.785,101.910 46.467,100.950 46.509 C 100.840 46.514,101.123 46.702,101.578 46.928 M151.598 47.068 C 146.485 49.904,144.551 57.252,147.615 62.205 C 147.827 62.547,148.000 62.870,148.000 62.923 C 148.000 63.792,152.202 66.874,153.312 66.820 C 153.537 66.809,153.541 66.793,153.333 66.722 C 152.941 66.588,151.972 66.169,151.347 65.863 C 145.975 63.229,144.778 53.783,149.224 49.118 C 150.025 48.278,151.784 47.000,152.140 47.000 C 152.225 47.000,152.510 46.888,152.773 46.751 C 153.150 46.554,153.180 46.504,152.917 46.512 C 152.733 46.517,152.140 46.767,151.598 47.068 M160.684 46.573 C 160.885 46.773,162.333 47.301,162.333 47.174 C 162.333 47.093,162.109 46.977,161.835 46.917 C 161.561 46.857,161.294 46.738,161.242 46.654 C 161.190 46.569,161.026 46.500,160.879 46.500 C 160.732 46.500,160.644 46.533,160.684 46.573 M163.283 47.976 C 164.351 48.820,165.405 50.030,165.959 51.048 C 166.204 51.499,166.431 51.789,166.463 51.693 C 166.663 51.094,163.318 47.333,162.586 47.333 C 162.522 47.333,162.836 47.623,163.283 47.976 M76.425 49.351 C 75.120 53.002,74.469 54.223,73.111 55.561 L 72.119 56.538 72.470 57.228 C 72.901 58.071,73.699 59.482,74.348 60.544 C 74.615 60.981,74.833 61.373,74.833 61.416 C 74.833 61.459,75.133 61.984,75.500 62.583 C 75.867 63.182,76.167 63.696,76.167 63.725 C 76.167 63.754,76.804 64.888,77.583 66.245 C 78.362 67.602,79.000 68.741,79.000 68.776 C 79.000 68.811,79.188 69.138,79.419 69.503 L 79.838 70.167 77.921 70.167 L 76.004 70.167 75.615 69.542 C 75.401 69.198,74.876 68.261,74.449 67.460 C 74.022 66.659,73.484 65.704,73.253 65.338 C 73.022 64.973,72.833 64.636,72.833 64.590 C 72.833 64.521,71.997 63.074,71.337 62.000 C 71.252 61.862,71.015 61.413,70.809 61.000 C 70.604 60.587,70.107 59.706,69.705 59.042 L 68.975 57.833 65.688 57.833 C 63.353 57.833,62.342 57.891,62.200 58.033 C 62.052 58.181,62.000 59.780,62.000 64.194 L 62.000 70.154 60.500 70.212 L 58.999 70.270 60.541 70.260 L 62.083 70.250 62.167 64.167 L 62.250 58.083 65.586 58.038 L 68.921 57.993 69.992 59.955 C 70.582 61.034,71.225 62.179,71.422 62.500 C 71.619 62.821,72.030 63.533,72.334 64.083 C 73.417 66.038,73.720 66.576,74.190 67.374 C 74.452 67.818,74.667 68.214,74.667 68.255 C 74.667 68.403,75.739 70.087,75.908 70.206 C 76.152 70.376,79.794 70.365,79.900 70.193 C 79.948 70.116,79.666 69.498,79.274 68.818 C 78.882 68.139,78.032 66.646,77.384 65.500 C 75.493 62.156,75.425 62.036,73.930 59.417 C 72.247 56.470,72.273 56.640,73.350 55.583 C 74.201 54.748,75.020 53.498,75.533 52.250 C 76.137 50.780,76.657 49.269,76.585 49.196 C 76.542 49.154,76.471 49.223,76.425 49.351 M367.944 49.444 C 367.723 49.666,367.821 52.949,368.056 53.144 C 368.203 53.266,369.838 53.343,372.931 53.372 L 377.583 53.417 377.583 56.583 L 377.583 59.750 372.750 59.833 L 367.917 59.917 367.869 61.736 C 367.843 62.736,367.880 63.614,367.952 63.686 C 368.024 63.758,368.058 62.959,368.027 61.909 L 367.971 60.000 372.715 60.000 C 376.545 60.000,377.496 59.956,377.650 59.770 C 377.782 59.611,377.827 58.574,377.795 56.395 L 377.750 53.250 373.008 53.206 C 367.527 53.154,368.006 53.353,368.003 51.127 L 368.000 49.505 373.292 49.458 L 378.583 49.412 373.319 49.373 C 370.424 49.351,368.006 49.383,367.944 49.444 M296.083 49.662 C 295.769 49.739,296.201 49.784,297.250 49.783 C 298.517 49.782,298.757 49.750,298.250 49.650 C 297.450 49.493,296.759 49.497,296.083 49.662 M294.426 50.089 C 294.017 50.398,294.144 50.399,294.856 50.090 C 295.244 49.921,295.314 49.846,295.083 49.845 C 294.900 49.844,294.604 49.954,294.426 50.089 M299.644 50.090 C 300.377 50.408,300.720 50.403,300.106 50.082 C 299.843 49.945,299.506 49.836,299.356 49.840 C 299.206 49.843,299.336 49.956,299.644 50.090 M104.403 51.629 C 104.382 54.545,103.279 56.001,100.417 56.888 C 99.958 57.030,99.733 57.150,99.917 57.154 C 102.396 57.212,104.691 54.499,104.655 51.551 C 104.635 49.867,104.416 49.935,104.403 51.629 M292.516 51.458 C 289.250 54.752,289.973 60.757,293.894 62.904 C 294.340 63.148,294.778 63.324,294.868 63.294 C 294.957 63.264,294.660 63.072,294.207 62.868 C 291.032 61.433,289.616 56.230,291.521 53.000 C 291.602 52.862,291.719 52.637,291.780 52.500 C 291.938 52.143,293.257 50.833,293.458 50.833 C 293.550 50.833,293.719 50.721,293.833 50.583 C 294.456 49.833,293.495 50.471,292.516 51.458 M166.508 52.000 C 166.506 52.046,166.613 52.383,166.745 52.750 C 166.944 53.302,166.987 53.343,166.993 52.990 C 166.997 52.756,166.890 52.418,166.755 52.240 C 166.621 52.062,166.509 51.954,166.508 52.000 M266.421 53.159 C 266.270 53.451,266.181 53.778,266.223 53.886 C 266.265 53.995,266.393 53.829,266.507 53.519 L 266.715 52.955 267.024 53.591 C 267.194 53.940,267.333 54.323,267.333 54.441 C 267.333 54.641,267.683 55.538,268.020 56.206 C 268.101 56.365,268.167 56.567,268.167 56.654 C 268.167 56.928,268.506 57.717,268.588 57.634 C 268.691 57.531,267.081 53.014,266.863 52.796 C 266.750 52.684,266.605 52.803,266.421 53.159 M167.081 53.917 C 167.960 58.278,166.422 62.990,163.413 65.151 C 162.992 65.454,162.688 65.744,162.739 65.794 C 162.842 65.897,164.461 64.593,164.795 64.138 C 164.912 63.979,165.100 63.752,165.212 63.633 C 165.893 62.914,166.685 61.324,167.189 59.667 C 167.498 58.651,167.504 54.219,167.198 53.750 C 166.998 53.445,166.988 53.459,167.081 53.917 M170.876 56.583 C 170.876 58.511,170.918 59.177,171.009 58.667 C 171.177 57.718,171.177 55.669,171.008 54.583 C 170.918 54.007,170.877 54.624,170.876 56.583 M282.605 54.208 C 282.469 54.716,282.495 58.678,282.637 59.035 C 282.699 59.192,282.750 58.086,282.750 56.577 C 282.750 55.068,282.740 53.833,282.728 53.833 C 282.716 53.833,282.660 54.002,282.605 54.208 M265.637 55.369 C 264.138 59.483,263.833 60.349,263.833 60.499 C 263.833 60.605,264.907 60.667,266.750 60.667 C 268.992 60.667,269.667 60.618,269.667 60.456 C 269.667 60.104,268.687 57.727,268.676 58.053 C 268.671 58.219,268.746 58.504,268.844 58.687 C 268.942 58.869,269.122 59.351,269.244 59.759 L 269.467 60.500 266.750 60.500 L 264.033 60.500 264.248 59.792 C 264.367 59.402,264.542 58.896,264.637 58.667 C 264.732 58.438,265.008 57.688,265.251 57.000 C 265.493 56.313,265.807 55.475,265.948 55.140 C 266.089 54.804,266.176 54.445,266.142 54.342 C 266.108 54.240,265.880 54.702,265.637 55.369 M296.042 54.339 C 295.498 54.557,295.450 59.706,295.989 59.994 C 296.180 60.096,297.640 60.167,299.563 60.167 C 302.919 60.167,303.286 60.241,302.766 60.815 C 302.620 60.977,302.500 61.164,302.500 61.230 C 302.500 61.473,301.229 62.509,300.523 62.843 C 300.124 63.031,299.830 63.219,299.871 63.260 C 300.136 63.525,302.016 62.206,302.678 61.291 C 303.616 59.997,303.623 60.000,299.822 60.000 C 295.479 60.000,295.833 60.259,295.833 57.077 C 295.833 55.660,295.852 54.484,295.875 54.464 C 295.898 54.444,299.404 54.386,303.667 54.335 L 311.417 54.242 303.917 54.215 C 299.760 54.200,296.249 54.255,296.042 54.339 M311.671 54.761 C 311.760 54.996,311.848 55.765,311.865 56.469 C 311.895 57.701,311.899 57.711,311.959 56.750 C 312.033 55.581,311.879 54.333,311.661 54.333 C 311.571 54.333,311.575 54.510,311.671 54.761 M257.894 55.101 C 257.627 55.842,257.147 57.109,257.015 57.417 C 256.937 57.600,256.743 58.087,256.583 58.500 C 256.424 58.913,256.229 59.400,256.151 59.583 C 256.073 59.767,255.855 60.329,255.667 60.833 C 255.478 61.337,255.261 61.900,255.183 62.083 C 254.829 62.919,254.617 63.472,254.384 64.167 C 254.246 64.579,254.039 65.142,253.923 65.417 C 253.807 65.692,253.598 66.217,253.458 66.583 C 252.951 67.916,252.617 68.761,252.394 69.275 C 251.859 70.512,251.819 70.500,256.525 70.500 C 260.679 70.500,260.912 70.455,261.089 69.626 C 261.153 69.328,261.259 69.008,261.324 68.917 C 261.389 68.825,261.577 68.375,261.742 67.917 C 262.204 66.628,262.050 66.667,266.709 66.667 C 270.857 66.667,271.500 66.746,271.500 67.258 C 271.500 67.394,271.566 67.635,271.646 67.794 C 272.000 68.494,272.333 69.364,272.333 69.589 C 272.333 70.419,272.746 70.500,276.958 70.497 C 279.135 70.496,281.018 70.430,281.143 70.352 C 281.400 70.189,281.266 69.248,280.959 69.058 C 280.836 68.982,280.820 69.049,280.911 69.264 C 281.339 70.281,281.473 70.246,277.045 70.295 C 272.382 70.346,272.972 70.596,272.024 68.167 L 271.407 66.583 266.779 66.539 L 262.150 66.495 261.811 67.289 C 261.625 67.726,261.372 68.308,261.249 68.583 C 261.126 68.858,260.975 69.287,260.913 69.535 C 260.716 70.326,260.619 70.342,256.396 70.295 C 252.533 70.251,252.417 70.240,252.443 69.917 C 252.457 69.733,253.230 67.633,254.161 65.250 C 257.244 57.353,258.157 54.935,258.082 54.860 C 258.041 54.819,257.957 54.928,257.894 55.101 M311.693 58.348 C 311.573 61.045,309.648 65.067,307.534 67.038 C 306.731 67.787,304.513 69.327,304.221 69.339 C 303.969 69.349,302.746 69.989,302.968 69.994 C 303.171 70.000,304.547 69.361,305.500 68.820 C 306.795 68.084,308.521 66.475,309.294 65.283 C 309.543 64.898,309.791 64.546,309.846 64.500 C 310.013 64.359,311.000 62.179,311.000 61.950 C 311.000 61.831,311.065 61.662,311.145 61.575 C 311.395 61.301,311.865 58.943,311.791 58.333 L 311.720 57.750 311.693 58.348 M282.843 59.922 C 282.821 61.117,284.251 64.244,285.545 65.829 C 286.798 67.365,289.947 69.775,290.273 69.449 C 290.306 69.416,290.127 69.284,289.875 69.156 C 286.657 67.514,284.131 64.298,283.165 60.613 C 282.955 59.812,282.849 59.584,282.843 59.922 M102.398 59.830 C 101.751 60.092,102.220 61.774,103.042 62.139 C 103.110 62.169,103.167 62.259,103.167 62.337 C 103.167 62.416,103.565 63.066,104.052 63.782 C 104.540 64.498,105.674 66.171,106.574 67.500 C 108.078 69.723,108.761 70.650,108.416 70.000 C 108.343 69.862,107.154 68.063,105.772 66.000 C 102.191 60.652,102.167 60.614,102.167 60.371 C 102.167 60.250,102.410 60.045,102.708 59.915 C 103.282 59.666,102.998 59.588,102.398 59.830 M170.589 60.167 C 169.806 63.745,167.498 66.999,164.546 68.688 C 164.052 68.971,163.683 69.238,163.726 69.282 C 164.022 69.578,167.187 67.048,168.252 65.664 C 169.430 64.134,171.017 60.448,170.785 59.781 C 170.748 59.672,170.659 59.846,170.589 60.167 M91.778 60.611 C 91.717 60.672,91.684 62.866,91.704 65.486 L 91.742 70.250 91.829 65.500 L 91.917 60.750 94.827 60.750 L 97.737 60.750 98.744 62.209 C 99.297 63.011,100.462 64.720,101.333 66.006 C 102.204 67.292,103.236 68.792,103.627 69.339 L 104.337 70.333 106.294 70.298 L 108.250 70.262 106.348 70.209 C 104.790 70.165,104.404 70.103,104.221 69.869 C 104.099 69.712,103.417 68.721,102.707 67.667 C 101.997 66.612,101.379 65.712,101.333 65.667 C 101.288 65.621,100.875 65.021,100.417 64.333 C 99.958 63.646,99.527 63.058,99.458 63.028 C 99.390 62.997,99.333 62.900,99.333 62.812 C 99.333 62.637,98.021 60.824,97.751 60.628 C 97.542 60.475,91.930 60.459,91.778 60.611 M143.667 62.320 C 143.667 63.466,146.786 67.359,148.651 68.539 C 149.477 69.063,149.246 68.753,148.292 68.058 C 146.578 66.810,144.401 64.074,144.068 62.750 C 143.961 62.322,143.667 62.007,143.667 62.320 M296.256 63.603 C 297.131 63.747,297.701 63.747,298.569 63.603 C 299.716 63.412,299.710 63.411,297.409 63.411 C 295.104 63.411,295.100 63.412,296.256 63.603 M379.042 64.002 C 379.295 64.160,379.530 69.986,379.292 70.205 C 379.269 70.226,374.975 70.283,369.750 70.333 L 360.250 70.422 369.593 70.461 C 376.870 70.491,378.999 70.454,379.222 70.291 C 379.694 69.946,379.564 63.943,379.083 63.871 C 378.779 63.825,378.775 63.837,379.042 64.002 M161.926 66.089 C 161.667 66.285,161.655 66.333,161.864 66.333 C 162.008 66.333,162.219 66.221,162.333 66.083 C 162.597 65.765,162.350 65.768,161.926 66.089 M160.167 66.770 C 159.109 67.156,159.264 67.190,160.562 66.858 C 160.917 66.767,161.288 66.612,161.387 66.513 C 161.634 66.266,161.424 66.310,160.167 66.770 M153.833 67.000 C 153.971 67.089,154.196 67.162,154.333 67.162 C 154.556 67.162,154.556 67.144,154.333 67.000 C 154.196 66.911,153.971 66.838,153.833 66.838 C 153.611 66.838,153.611 66.856,153.833 67.000 M155.882 67.290 C 156.504 67.323,157.479 67.322,158.049 67.290 C 158.618 67.257,158.108 67.231,156.917 67.231 C 155.725 67.232,155.259 67.258,155.882 67.290 M149.574 69.089 C 149.751 69.223,149.972 69.333,150.064 69.333 C 150.155 69.333,150.085 69.223,149.907 69.089 C 149.729 68.954,149.508 68.844,149.417 68.844 C 149.325 68.844,149.396 68.954,149.574 69.089 M150.425 69.488 C 150.626 69.685,152.047 70.176,152.142 70.081 C 152.230 69.992,151.396 69.667,151.082 69.667 C 150.956 69.667,150.807 69.592,150.750 69.500 C 150.693 69.408,150.561 69.333,150.457 69.333 C 150.337 69.333,150.325 69.391,150.425 69.488 M162.917 69.509 C 162.733 69.593,162.367 69.740,162.102 69.835 C 161.837 69.931,161.652 70.041,161.692 70.080 C 161.779 70.167,162.792 69.818,163.250 69.543 C 163.639 69.310,163.403 69.286,162.917 69.509 M290.760 69.745 C 290.938 69.879,291.233 69.989,291.417 69.988 C 291.647 69.987,291.577 69.912,291.189 69.743 C 290.478 69.435,290.350 69.435,290.760 69.745 M292.250 70.241 C 292.525 70.375,292.975 70.480,293.250 70.473 C 293.744 70.462,293.743 70.460,293.167 70.329 C 292.846 70.256,292.396 70.151,292.167 70.096 C 291.814 70.012,291.827 70.034,292.250 70.241 M89.208 70.289 C 89.644 70.324,90.356 70.324,90.792 70.289 C 91.227 70.255,90.871 70.227,90.000 70.227 C 89.129 70.227,88.773 70.255,89.208 70.289 M152.833 70.362 C 153.875 70.650,154.522 70.694,153.750 70.425 C 153.383 70.297,152.896 70.194,152.667 70.197 C 152.332 70.200,152.365 70.232,152.833 70.362 M160.000 70.431 C 159.361 70.692,159.630 70.669,161.000 70.343 C 161.575 70.207,161.576 70.205,161.083 70.199 C 160.808 70.195,160.321 70.299,160.000 70.431 M300.083 70.598 C 299.291 70.812,299.283 70.820,299.917 70.756 C 300.964 70.651,302.055 70.371,301.417 70.372 C 301.142 70.373,300.542 70.474,300.083 70.598 M293.910 70.656 C 293.970 70.754,294.290 70.833,294.621 70.833 C 295.356 70.833,295.293 70.749,294.442 70.595 C 294.005 70.516,293.835 70.535,293.910 70.656 M156.544 70.786 C 156.797 70.825,157.172 70.824,157.377 70.784 C 157.582 70.744,157.375 70.713,156.917 70.714 C 156.458 70.716,156.291 70.748,156.544 70.786 M296.542 70.956 C 296.977 70.990,297.690 70.990,298.125 70.956 C 298.560 70.922,298.204 70.893,297.333 70.893 C 296.462 70.893,296.106 70.922,296.542 70.956 " stroke="none" fill="#a0a0a0" fill-rule="evenodd"></path><path id="path4" d="M3.006 3.156 C 2.632 3.854,2.781 110.793,3.156 110.994 C 3.654 111.261,396.866 111.234,397.133 110.967 C 397.288 110.812,397.324 98.644,397.292 57.008 L 397.251 3.250 397.167 57.083 L 397.083 110.917 200.364 110.958 C 64.951 110.987,3.545 110.946,3.323 110.828 C 2.900 110.601,2.803 3.537,3.226 3.187 C 3.392 3.049,54.856 3.011,200.309 3.042 C 308.581 3.065,397.167 3.027,397.167 2.958 C 397.167 2.622,3.186 2.820,3.006 3.156 M5.945 5.944 C 5.785 6.104,5.812 107.708,5.971 107.958 C 6.077 108.125,45.028 108.158,200.177 108.125 L 394.250 108.083 394.250 57.000 L 394.250 5.917 200.153 5.875 C 93.399 5.852,6.006 5.883,5.945 5.944 M394.129 56.667 C 394.154 84.487,394.134 107.419,394.084 107.625 L 393.994 108.000 200.038 107.958 L 6.083 107.917 6.041 57.167 C 6.017 29.254,6.034 6.323,6.077 6.208 C 6.140 6.042,45.036 6.008,200.120 6.042 L 394.083 6.083 394.129 56.667 M13.700 13.200 C 13.468 13.432,13.406 100.427,13.637 100.792 C 13.743 100.958,32.478 100.992,106.760 100.958 L 199.750 100.917 199.792 57.184 C 199.823 24.995,199.784 13.392,199.647 13.226 C 199.385 12.911,14.015 12.885,13.700 13.200 M199.667 57.083 L 199.667 100.833 106.750 100.833 L 13.833 100.833 13.833 57.083 L 13.833 13.333 106.750 13.333 L 199.667 13.333 199.667 57.083 M153.250 42.593 C 152.975 42.728,152.900 42.787,153.083 42.725 C 153.267 42.662,154.129 42.561,155.000 42.500 L 156.583 42.388 155.167 42.368 C 154.222 42.355,153.583 42.430,153.250 42.593 M158.667 42.497 C 160.044 42.600,161.451 42.887,162.039 43.186 C 162.199 43.267,162.424 43.331,162.539 43.327 C 162.889 43.318,161.944 42.846,161.562 42.839 C 161.367 42.836,160.938 42.721,160.609 42.583 C 160.215 42.419,159.539 42.343,158.630 42.362 L 157.250 42.391 158.667 42.497 M88.276 42.805 C 87.981 43.130,87.833 70.044,88.125 70.224 C 88.194 70.267,88.250 64.140,88.250 56.609 L 88.250 42.917 93.583 42.833 C 96.517 42.788,98.779 42.694,98.611 42.625 C 97.867 42.320,88.568 42.482,88.276 42.805 M117.833 42.833 C 117.334 43.333,117.306 69.939,117.805 70.391 C 118.172 70.723,134.402 70.820,135.011 70.494 C 135.452 70.258,135.504 67.268,135.070 67.101 C 134.925 67.046,131.850 67.000,128.236 67.000 L 121.667 67.000 121.667 62.585 L 121.667 58.171 127.542 58.124 L 133.417 58.077 127.500 58.080 L 121.583 58.083 121.583 62.583 L 121.583 67.083 128.333 67.167 L 135.083 67.250 135.132 68.664 C 135.173 69.849,135.135 70.111,134.892 70.289 C 134.453 70.610,118.287 70.595,118.019 70.273 C 117.882 70.108,117.843 66.365,117.874 56.482 L 117.917 42.917 126.250 42.917 L 134.583 42.917 134.632 44.403 C 134.667 45.479,134.621 45.926,134.465 46.025 C 134.306 46.126,134.326 46.162,134.542 46.164 C 135.007 46.168,134.978 42.922,134.511 42.673 C 133.814 42.299,118.217 42.450,117.833 42.833 M294.000 42.757 C 293.362 42.904,293.235 42.969,293.583 42.973 C 293.858 42.976,294.533 42.877,295.083 42.753 C 295.842 42.582,295.943 42.530,295.500 42.537 C 295.179 42.542,294.504 42.641,294.000 42.757 M298.917 42.677 C 299.283 42.768,299.958 42.874,300.417 42.913 L 301.250 42.983 300.500 42.825 C 300.087 42.738,299.412 42.632,299.000 42.589 L 298.250 42.512 298.917 42.677 M58.616 42.939 C 58.459 43.097,58.467 70.333,58.625 70.333 C 58.694 70.333,58.730 64.181,58.706 56.661 L 58.663 42.989 60.456 43.036 L 62.250 43.083 62.333 48.833 L 62.417 54.583 63.833 54.628 C 64.612 54.652,65.813 54.603,66.500 54.518 C 67.507 54.394,67.280 54.382,65.331 54.455 C 62.199 54.571,62.514 55.225,62.461 48.486 L 62.417 42.917 60.575 42.870 C 59.561 42.844,58.680 42.875,58.616 42.939 M74.736 43.423 C 74.582 43.747,74.497 44.052,74.546 44.102 C 74.596 44.151,74.733 43.924,74.852 43.596 L 75.067 43.000 77.033 43.000 C 78.115 43.000,79.000 43.057,79.000 43.126 C 79.000 43.196,78.516 44.525,77.925 46.080 C 77.334 47.634,76.882 48.937,76.919 48.975 C 76.987 49.043,77.040 48.926,77.582 47.500 C 77.739 47.087,77.935 46.620,78.017 46.461 C 78.099 46.301,78.167 46.088,78.167 45.986 C 78.167 45.884,78.269 45.564,78.394 45.275 C 79.499 42.723,79.562 42.833,77.013 42.833 L 75.016 42.833 74.736 43.423 M100.500 43.004 C 101.188 43.068,101.938 43.175,102.167 43.242 C 102.542 43.352,102.536 43.338,102.106 43.099 C 101.777 42.916,101.260 42.842,100.439 42.861 L 99.250 42.889 100.500 43.004 M151.417 43.111 L 151.083 43.378 151.417 43.252 C 151.600 43.182,151.975 43.067,152.250 42.996 L 152.750 42.867 152.250 42.856 C 151.975 42.849,151.600 42.964,151.417 43.111 M369.417 42.998 L 378.417 43.083 378.462 46.125 L 378.508 49.167 373.326 49.167 C 367.041 49.167,367.500 49.008,367.500 51.183 C 367.500 53.720,367.008 53.500,372.673 53.500 L 377.500 53.500 377.500 56.493 L 377.500 59.486 372.660 59.534 C 367.003 59.592,367.506 59.365,367.503 61.855 C 367.499 64.187,366.958 63.987,373.431 64.039 L 378.917 64.083 378.962 67.125 L 379.008 70.167 369.671 70.167 L 360.335 70.167 360.291 56.542 L 360.247 42.917 360.249 56.583 L 360.250 70.250 369.667 70.250 L 379.083 70.250 379.129 67.179 C 379.164 64.833,379.124 64.076,378.962 63.973 C 378.845 63.899,376.294 63.837,373.292 63.836 L 367.833 63.833 367.833 61.833 C 367.833 60.733,367.852 59.817,367.875 59.798 C 367.898 59.779,370.092 59.722,372.750 59.673 L 377.583 59.583 377.583 56.500 L 377.583 53.417 372.750 53.333 L 367.917 53.250 367.917 51.333 L 367.917 49.417 373.250 49.333 L 378.583 49.250 378.629 46.179 C 378.664 43.833,378.624 43.076,378.462 42.973 C 378.345 42.899,374.238 42.855,369.333 42.875 L 360.417 42.912 369.417 42.998 M204.415 56.667 L 204.417 70.250 207.833 70.297 C 209.713 70.323,211.419 70.303,211.626 70.252 L 212.002 70.160 211.959 56.635 C 211.931 47.805,211.859 43.092,211.750 43.056 C 211.640 43.019,211.598 47.582,211.627 56.583 L 211.671 70.167 208.086 70.167 L 204.502 70.167 204.458 56.625 L 204.414 43.083 204.415 56.667 M218.082 56.667 L 218.083 70.250 221.500 70.297 C 223.379 70.323,225.085 70.303,225.292 70.252 L 225.667 70.160 225.667 63.580 C 225.667 58.310,225.710 57.000,225.882 57.000 C 226.001 57.000,227.069 58.355,228.257 60.012 C 229.445 61.668,230.553 63.206,230.720 63.428 C 231.018 63.825,231.073 63.833,233.486 63.833 C 236.402 63.833,235.773 64.278,238.750 60.114 C 239.942 58.447,241.029 57.083,241.167 57.083 C 241.383 57.083,241.428 57.963,241.500 63.667 L 241.583 70.250 245.250 70.250 L 248.917 70.250 248.959 56.625 C 248.983 49.131,248.945 43.000,248.876 43.000 C 248.807 43.000,248.770 49.112,248.794 56.583 L 248.837 70.167 245.252 70.167 L 241.667 70.167 241.667 63.495 C 241.667 55.699,241.645 55.617,240.167 57.824 C 239.323 59.083,236.110 63.432,235.947 63.536 C 235.407 63.880,231.235 63.678,230.884 63.292 C 230.551 62.925,228.562 60.181,226.927 57.833 C 225.407 55.649,225.424 55.586,225.373 63.458 L 225.330 70.167 221.749 70.167 L 218.169 70.167 218.125 56.625 L 218.080 43.083 218.082 56.667 M224.103 43.112 C 224.284 43.246,225.110 44.386,227.969 48.448 C 232.177 54.428,233.232 55.833,233.512 55.833 C 233.805 55.833,234.707 54.634,239.408 48.000 C 240.545 46.396,241.820 44.615,242.241 44.042 C 242.663 43.469,242.950 43.001,242.879 43.002 C 242.808 43.003,241.964 44.109,241.004 45.460 C 240.044 46.811,238.429 49.079,237.415 50.500 C 236.401 51.921,235.168 53.668,234.676 54.382 C 233.426 56.197,233.999 56.716,228.285 48.596 C 227.257 47.136,225.967 45.304,225.417 44.525 C 224.867 43.746,224.304 43.078,224.167 43.042 C 224.003 42.998,223.981 43.022,224.103 43.112 M262.426 44.117 C 262.180 44.740,261.224 47.200,260.302 49.583 C 256.652 59.016,253.959 65.955,252.799 68.917 C 252.232 70.364,251.916 70.250,256.488 70.250 L 260.560 70.250 261.250 68.500 C 262.150 66.215,261.837 66.338,266.750 66.338 C 271.648 66.338,271.332 66.214,272.230 68.500 L 272.917 70.250 276.905 70.295 C 279.099 70.319,280.954 70.280,281.027 70.207 C 281.100 70.134,280.635 68.726,279.993 67.079 C 277.192 59.883,273.427 50.171,272.146 46.833 C 271.138 44.208,270.622 42.989,270.551 43.061 C 270.499 43.112,271.417 45.599,272.158 47.417 C 272.411 48.039,272.815 49.079,273.582 51.083 C 274.003 52.183,274.410 53.233,274.487 53.417 C 274.564 53.600,274.756 54.087,274.915 54.500 C 275.073 54.913,275.278 55.438,275.370 55.667 C 275.461 55.896,275.980 57.246,276.521 58.667 C 277.063 60.087,277.571 61.400,277.650 61.583 C 277.729 61.767,277.915 62.235,278.063 62.625 C 278.212 63.015,278.455 63.652,278.603 64.042 C 278.752 64.431,278.936 64.900,279.013 65.083 C 279.090 65.267,279.496 66.317,279.915 67.417 C 280.335 68.517,280.751 69.547,280.839 69.706 C 280.928 69.865,281.000 70.034,281.000 70.081 C 281.000 70.128,279.219 70.166,277.042 70.166 L 273.083 70.165 272.772 69.374 C 272.601 68.939,272.376 68.365,272.272 68.097 C 272.168 67.830,271.933 67.305,271.750 66.931 L 271.417 66.250 266.805 66.206 L 262.193 66.161 261.874 66.622 C 261.698 66.876,261.301 67.777,260.990 68.625 L 260.426 70.167 256.478 70.167 L 252.531 70.167 253.436 67.792 C 253.933 66.485,254.405 65.267,254.484 65.083 C 254.562 64.900,254.758 64.412,254.919 64.000 C 255.080 63.587,255.303 63.025,255.414 62.750 C 255.526 62.475,255.710 61.987,255.825 61.667 C 255.940 61.346,256.259 60.521,256.534 59.833 C 256.809 59.146,257.148 58.283,257.287 57.917 C 257.739 56.726,257.790 56.592,258.055 55.917 C 258.199 55.550,258.661 54.350,259.082 53.250 C 259.503 52.150,259.910 51.100,259.987 50.917 C 260.064 50.733,260.258 50.246,260.419 49.833 C 260.580 49.421,260.814 48.847,260.939 48.558 C 261.064 48.269,261.167 47.950,261.167 47.848 C 261.167 47.746,261.234 47.532,261.316 47.373 C 261.398 47.214,261.595 46.746,261.753 46.333 C 261.911 45.921,262.102 45.433,262.178 45.250 C 262.253 45.067,262.480 44.521,262.680 44.037 C 262.881 43.553,263.006 43.118,262.959 43.070 C 262.911 43.022,262.671 43.493,262.426 44.117 M292.000 43.260 C 291.632 43.400,291.540 43.482,291.750 43.483 C 291.933 43.484,292.308 43.382,292.583 43.256 C 293.220 42.965,292.773 42.968,292.000 43.260 M301.750 43.256 C 302.025 43.382,302.400 43.485,302.583 43.485 C 302.767 43.485,302.617 43.377,302.250 43.245 C 301.413 42.944,301.084 42.951,301.750 43.256 M316.207 56.625 L 316.250 70.250 320.000 70.250 L 323.750 70.250 323.793 56.759 C 323.816 49.339,323.779 43.212,323.709 43.143 C 323.640 43.073,323.603 49.125,323.627 56.592 L 323.671 70.167 320.000 70.167 L 316.329 70.167 316.373 56.583 C 316.397 49.112,316.360 43.000,316.291 43.000 C 316.221 43.000,316.184 49.131,316.207 56.625 M329.874 56.625 L 329.917 70.250 333.583 70.250 L 337.250 70.250 337.338 63.500 C 337.387 59.788,337.443 56.727,337.463 56.698 C 337.572 56.546,338.242 57.398,342.723 63.385 C 345.411 66.978,347.727 70.012,347.869 70.129 C 348.061 70.287,348.883 70.330,351.105 70.296 L 354.083 70.250 354.126 56.625 C 354.149 49.131,354.112 43.000,354.043 43.000 C 353.973 43.000,353.936 49.112,353.960 56.583 L 354.004 70.167 351.016 70.167 L 348.027 70.167 345.435 66.708 C 342.472 62.755,342.874 63.294,340.196 59.685 C 336.902 55.248,337.167 54.913,337.167 63.520 L 337.167 70.167 333.581 70.167 L 329.996 70.167 330.040 56.583 C 330.064 49.112,330.027 43.000,329.957 43.000 C 329.888 43.000,329.851 49.131,329.874 56.625 M336.576 43.958 C 336.994 44.485,337.400 44.996,337.478 45.093 C 337.557 45.190,338.394 46.315,339.340 47.593 C 340.286 48.871,341.140 50.002,341.238 50.107 C 341.336 50.212,342.424 51.657,343.655 53.319 C 346.194 56.749,346.233 56.791,346.580 56.503 C 346.847 56.281,347.056 43.000,346.792 43.000 C 346.723 43.000,346.666 45.831,346.664 49.292 C 346.663 52.752,346.616 55.755,346.560 55.965 C 346.363 56.700,346.880 57.314,340.012 48.188 C 337.865 45.335,336.042 43.000,335.961 43.000 C 335.881 43.000,336.157 43.431,336.576 43.958 M103.532 43.807 C 106.237 45.154,107.857 47.437,108.222 50.417 C 108.273 50.829,108.288 50.802,108.308 50.262 C 108.375 48.520,105.767 44.167,104.658 44.167 C 104.567 44.167,104.196 43.979,103.833 43.750 C 103.470 43.521,103.041 43.334,102.878 43.334 C 102.716 43.334,103.010 43.547,103.532 43.807 M149.667 43.861 C 148.515 44.496,147.085 45.562,146.359 46.328 C 145.521 47.212,144.333 48.839,144.333 49.102 C 144.333 49.229,144.275 49.333,144.203 49.333 C 143.997 49.333,143.313 51.049,142.876 52.667 C 142.649 53.506,142.583 54.406,142.583 56.667 C 142.583 59.980,142.696 60.586,143.793 63.167 C 144.910 65.794,147.500 68.379,150.333 69.694 C 150.654 69.843,151.123 70.060,151.375 70.177 C 151.627 70.294,151.873 70.349,151.922 70.300 C 151.971 70.252,151.765 70.118,151.464 70.005 C 140.240 65.760,139.417 49.381,150.148 43.814 C 150.657 43.550,150.964 43.338,150.829 43.344 C 150.694 43.350,150.171 43.583,149.667 43.861 M163.167 43.583 C 163.714 43.896,163.985 43.900,163.574 43.589 C 163.396 43.454,163.137 43.344,163.000 43.345 C 162.855 43.345,162.925 43.445,163.167 43.583 M289.903 44.172 C 285.317 46.459,282.987 50.484,282.912 56.250 L 282.873 59.250 282.998 56.333 C 283.253 50.334,285.732 46.226,290.375 44.108 C 290.902 43.868,291.333 43.633,291.333 43.586 C 291.333 43.457,291.349 43.451,289.903 44.172 M303.000 43.582 C 303.000 43.650,304.880 44.594,305.417 44.795 C 305.508 44.829,305.227 44.627,304.792 44.345 C 304.357 44.064,303.893 43.833,303.760 43.833 C 303.628 43.833,303.473 43.758,303.417 43.667 C 303.312 43.497,303.000 43.433,303.000 43.582 M164.000 43.900 C 164.000 43.937,164.281 44.126,164.625 44.320 L 165.250 44.673 164.750 44.254 C 164.291 43.870,164.000 43.732,164.000 43.900 M74.173 44.870 C 74.061 45.171,73.871 45.679,73.751 46.000 C 73.632 46.321,73.226 47.381,72.850 48.356 C 72.474 49.332,72.167 50.202,72.167 50.291 C 72.167 50.727,71.044 52.497,70.370 53.125 C 69.951 53.515,69.687 53.833,69.782 53.833 C 70.110 53.833,71.494 52.185,71.908 51.303 C 72.512 50.012,74.550 44.495,74.457 44.402 C 74.414 44.358,74.286 44.569,74.173 44.870 M165.833 45.130 C 168.150 46.906,169.885 49.507,170.648 52.346 C 170.926 53.385,170.981 53.484,170.990 52.968 C 170.995 52.630,170.934 52.312,170.852 52.262 C 170.771 52.211,170.654 51.903,170.593 51.575 C 170.236 49.673,166.470 44.632,165.438 44.674 C 165.335 44.679,165.512 44.884,165.833 45.130 M306.000 45.164 C 306.229 45.362,306.785 45.835,307.235 46.216 C 308.632 47.399,310.585 50.387,310.708 51.532 L 310.750 51.917 306.841 51.961 L 302.932 52.006 302.508 51.530 C 302.041 51.006,300.961 50.167,300.753 50.167 C 300.681 50.167,300.838 50.329,301.103 50.527 C 301.367 50.726,301.888 51.177,302.259 51.530 L 302.936 52.173 306.926 52.128 L 310.917 52.083 310.875 51.548 C 310.758 50.038,308.330 46.683,306.396 45.361 C 305.949 45.055,305.771 44.967,306.000 45.164 M156.627 46.118 C 156.834 46.158,157.134 46.156,157.294 46.115 C 157.453 46.073,157.283 46.040,156.917 46.042 C 156.550 46.044,156.420 46.078,156.627 46.118 M121.611 46.278 C 121.472 46.417,121.463 54.043,121.601 54.403 C 121.691 54.636,122.366 54.667,127.476 54.669 C 134.237 54.672,133.707 54.517,133.637 56.476 C 133.603 57.442,133.644 57.980,133.750 57.945 C 133.969 57.872,134.048 55.156,133.840 54.833 C 133.704 54.621,132.770 54.571,127.715 54.500 L 121.750 54.417 121.750 50.292 C 121.750 48.023,121.744 46.167,121.736 46.167 C 121.728 46.167,121.672 46.217,121.611 46.278 M153.917 46.421 C 153.492 46.561,153.379 46.646,153.606 46.654 C 153.802 46.661,154.214 46.557,154.523 46.423 C 155.213 46.124,154.824 46.122,153.917 46.421 M159.167 46.400 C 159.396 46.540,159.808 46.650,160.083 46.644 L 160.583 46.633 160.083 46.496 C 159.808 46.420,159.396 46.311,159.167 46.252 L 158.750 46.146 159.167 46.400 M91.909 46.543 C 91.865 46.659,91.849 49.078,91.875 51.918 L 91.922 57.083 91.961 51.768 L 92.000 46.452 96.292 46.524 C 98.652 46.563,100.133 46.545,99.583 46.483 C 97.681 46.267,91.998 46.312,91.909 46.543 M100.833 46.749 C 100.833 46.795,101.162 46.986,101.563 47.174 C 104.904 48.745,105.114 55.042,101.859 56.075 C 101.662 56.138,101.500 56.261,101.500 56.349 C 101.500 56.617,102.380 56.065,103.033 55.389 C 104.757 53.601,104.853 50.255,103.238 48.239 C 102.693 47.559,100.833 46.407,100.833 46.749 M151.880 47.175 C 148.149 48.954,145.882 53.832,146.616 58.500 C 146.732 59.234,146.762 58.901,146.768 56.833 C 146.781 51.967,148.390 49.140,152.265 47.178 C 153.541 46.533,153.232 46.530,151.880 47.175 M160.907 46.922 C 161.085 47.057,161.332 47.167,161.457 47.167 C 161.719 47.167,163.220 48.134,163.843 48.705 C 165.580 50.296,166.522 52.192,166.930 54.917 C 167.577 59.232,165.525 64.097,162.442 65.560 C 162.115 65.715,161.802 65.915,161.747 66.004 C 161.568 66.294,161.844 66.178,162.722 65.592 C 168.874 61.488,168.825 51.568,162.633 47.608 C 162.110 47.274,161.571 47.000,161.435 47.000 C 161.298 47.000,161.140 46.925,161.083 46.833 C 161.027 46.742,160.891 46.669,160.782 46.672 C 160.673 46.675,160.729 46.787,160.907 46.922 M76.287 50.453 C 75.474 52.748,74.523 54.468,73.473 55.541 C 72.340 56.699,72.353 56.640,73.000 57.692 C 73.275 58.139,73.500 58.543,73.500 58.589 C 73.500 58.635,73.676 58.953,73.891 59.295 C 74.224 59.825,77.864 66.210,78.996 68.250 C 79.200 68.617,79.518 69.166,79.704 69.471 C 80.173 70.239,80.019 70.314,77.831 70.375 L 75.917 70.429 77.833 70.462 C 80.456 70.507,80.521 70.422,79.333 68.500 C 79.248 68.362,78.782 67.537,78.298 66.667 C 77.814 65.796,77.328 64.933,77.216 64.750 C 77.105 64.567,76.938 64.267,76.845 64.083 C 76.752 63.900,76.450 63.375,76.174 62.917 C 75.897 62.458,75.619 61.971,75.555 61.833 C 75.458 61.626,74.982 60.805,74.009 59.167 C 73.927 59.029,73.587 58.395,73.254 57.757 L 72.648 56.597 73.199 56.075 C 74.382 54.955,76.000 52.405,76.000 51.661 C 76.000 51.570,76.067 51.365,76.150 51.206 C 76.520 50.489,76.865 49.513,76.809 49.342 C 76.774 49.240,76.540 49.739,76.287 50.453 M295.891 49.461 C 295.786 49.528,296.439 49.583,297.344 49.583 C 298.248 49.583,298.859 49.532,298.702 49.470 C 298.314 49.316,296.130 49.309,295.891 49.461 M294.000 50.016 C 289.141 52.581,288.872 60.133,293.541 62.915 C 294.082 63.237,294.612 63.499,294.720 63.497 C 294.828 63.495,294.504 63.267,294.000 62.990 C 288.754 60.103,289.464 51.154,295.043 49.829 L 295.583 49.701 295.083 49.704 C 294.808 49.706,294.321 49.846,294.000 50.016 M299.750 49.921 C 300.582 50.221,300.667 50.220,300.260 49.911 C 300.082 49.777,299.744 49.670,299.510 49.674 C 299.157 49.680,299.198 49.723,299.750 49.921 M266.514 52.566 C 266.333 52.784,265.862 53.918,265.504 55.000 C 265.428 55.229,265.129 56.054,264.841 56.833 C 263.224 61.203,263.047 60.833,266.750 60.833 C 270.113 60.833,270.087 60.846,269.600 59.430 C 268.875 57.326,268.292 55.726,268.152 55.461 C 268.069 55.301,268.000 55.076,267.999 54.961 C 267.998 54.845,267.893 54.549,267.765 54.303 C 267.636 54.057,267.483 53.634,267.423 53.362 C 267.270 52.666,266.784 52.241,266.514 52.566 M268.306 56.403 C 269.055 58.458,269.667 60.258,269.667 60.403 C 269.667 60.633,269.298 60.667,266.750 60.667 C 263.334 60.667,263.563 60.910,264.514 58.291 C 266.226 53.578,266.590 52.667,266.762 52.667 C 266.863 52.667,267.558 54.348,268.306 56.403 M108.039 53.885 C 107.580 56.353,105.939 58.456,103.591 59.585 C 102.904 59.916,102.298 60.256,102.245 60.342 C 102.192 60.428,103.610 62.667,105.396 65.319 C 107.855 68.971,108.582 70.164,108.391 70.237 C 108.025 70.377,104.450 70.350,104.235 70.206 C 104.066 70.092,102.770 68.228,99.106 62.834 L 97.629 60.659 94.773 60.704 L 91.917 60.750 91.833 65.526 C 91.787 68.153,91.806 70.267,91.875 70.224 C 91.944 70.182,92.000 68.051,92.000 65.490 L 92.000 60.833 94.792 60.834 L 97.583 60.835 97.856 61.293 C 98.122 61.738,100.854 65.750,101.118 66.083 C 101.191 66.175,101.847 67.137,102.576 68.221 C 104.170 70.590,104.020 70.500,106.374 70.500 C 109.018 70.500,109.068 70.444,107.923 68.750 C 107.428 68.017,106.961 67.342,106.886 67.250 C 106.714 67.039,105.810 65.678,105.586 65.292 C 105.493 65.131,104.749 64.014,103.933 62.809 C 102.341 60.458,102.294 60.260,103.262 59.943 C 105.756 59.126,108.553 55.407,108.305 53.237 C 108.266 52.886,108.191 53.068,108.039 53.885 M171.083 56.583 C 171.083 58.545,171.134 59.362,171.240 59.115 C 171.441 58.648,171.438 54.535,171.236 54.052 C 171.135 53.811,171.083 54.677,171.083 56.583 M68.917 54.000 C 68.860 54.092,68.612 54.177,68.365 54.189 C 67.987 54.209,67.974 54.223,68.282 54.283 C 68.483 54.322,68.858 54.240,69.115 54.100 C 69.428 53.931,69.490 53.844,69.302 53.840 C 69.146 53.836,68.973 53.908,68.917 54.000 M296.000 57.167 L 296.000 59.833 299.458 59.795 L 302.917 59.757 299.537 59.709 L 296.158 59.660 296.204 57.205 L 296.250 54.750 303.826 54.750 L 311.402 54.750 311.540 55.415 C 312.265 58.906,309.774 65.079,306.664 67.498 C 306.253 67.817,305.836 68.155,305.737 68.248 C 305.357 68.606,302.678 69.833,302.276 69.833 C 302.135 69.833,301.973 69.908,301.917 70.000 C 301.860 70.092,301.537 70.178,301.198 70.192 C 300.684 70.213,300.659 70.228,301.049 70.287 C 302.384 70.488,306.066 68.503,307.895 66.596 C 310.527 63.852,312.209 58.914,311.734 55.329 L 311.624 54.500 303.812 54.500 L 296.000 54.500 296.000 57.167 M100.083 56.759 C 99.552 57.019,99.707 57.002,100.917 56.671 C 101.377 56.545,101.383 56.533,101.000 56.525 C 100.771 56.519,100.358 56.625,100.083 56.759 M93.875 57.124 C 94.860 57.154,96.473 57.154,97.458 57.124 C 98.444 57.095,97.638 57.071,95.667 57.071 C 93.696 57.071,92.890 57.095,93.875 57.124 M62.414 58.205 C 62.281 58.567,62.243 70.306,62.375 70.224 C 62.444 70.182,62.500 67.451,62.500 64.157 L 62.500 58.167 65.625 58.168 L 68.750 58.169 69.059 58.709 C 69.229 59.007,69.619 59.714,69.926 60.282 C 70.720 61.749,70.905 62.072,71.003 62.167 C 71.051 62.212,71.180 62.438,71.290 62.667 C 71.399 62.896,71.794 63.608,72.166 64.250 C 72.538 64.892,72.916 65.567,73.007 65.750 C 73.097 65.933,73.307 66.308,73.473 66.583 C 73.827 67.170,74.957 69.215,75.292 69.875 C 75.420 70.127,75.593 70.333,75.677 70.333 C 75.761 70.333,75.617 69.977,75.356 69.542 C 75.095 69.106,74.297 67.700,73.582 66.417 C 72.867 65.133,72.068 63.726,71.807 63.289 C 71.547 62.852,71.333 62.471,71.333 62.441 C 71.333 62.412,70.780 61.419,70.104 60.235 L 68.874 58.083 65.683 58.038 C 63.220 58.003,62.474 58.041,62.414 58.205 M283.012 59.544 C 282.941 61.322,285.034 65.261,287.019 67.089 C 288.440 68.396,291.660 70.167,292.618 70.167 C 292.902 70.167,292.401 69.855,291.983 69.772 C 291.336 69.642,288.935 68.453,288.253 67.924 C 285.676 65.924,284.325 63.802,283.262 60.083 C 283.130 59.625,283.018 59.382,283.012 59.544 M146.906 59.958 C 147.451 62.240,150.751 66.180,152.106 66.165 C 152.185 66.164,151.800 65.877,151.250 65.527 C 149.426 64.366,147.797 62.213,147.164 60.125 C 146.945 59.405,146.743 59.274,146.906 59.958 M170.800 60.167 C 170.740 60.487,170.644 60.975,170.587 61.250 C 170.488 61.733,170.493 61.730,170.750 61.171 C 170.896 60.852,170.992 60.365,170.963 60.087 L 170.910 59.583 170.800 60.167 M303.101 59.936 C 303.764 60.209,302.030 62.400,300.661 63.019 C 300.207 63.224,299.870 63.426,299.912 63.467 C 300.038 63.594,301.412 62.886,302.001 62.390 C 303.098 61.467,303.881 59.816,303.208 59.846 C 303.048 59.854,303.000 59.894,303.101 59.936 M170.007 62.732 C 168.695 65.965,166.176 68.323,162.167 70.071 C 161.846 70.211,161.678 70.327,161.794 70.330 C 161.910 70.332,162.135 70.266,162.294 70.184 C 162.453 70.102,162.921 69.900,163.333 69.736 C 164.900 69.114,168.667 66.107,168.667 65.478 C 168.667 65.412,168.760 65.255,168.875 65.130 C 169.185 64.792,169.454 64.337,169.839 63.500 C 170.029 63.087,170.268 62.581,170.370 62.375 C 170.473 62.169,170.516 61.960,170.466 61.911 C 170.417 61.862,170.211 62.231,170.007 62.732 M295.833 63.748 C 296.793 64.064,298.046 64.063,299.000 63.744 L 299.750 63.494 299.000 63.615 C 298.011 63.774,296.761 63.778,295.833 63.624 L 295.083 63.500 295.833 63.748 M152.718 66.434 C 152.975 66.573,153.313 66.654,153.468 66.613 C 153.674 66.559,153.652 66.533,153.385 66.519 C 153.184 66.509,152.973 66.425,152.917 66.333 C 152.860 66.242,152.687 66.170,152.532 66.173 C 152.343 66.178,152.405 66.264,152.718 66.434 M160.917 66.333 C 160.860 66.425,160.649 66.509,160.448 66.519 C 160.218 66.532,160.180 66.565,160.344 66.609 C 160.487 66.648,160.825 66.564,161.094 66.424 C 161.398 66.265,161.477 66.168,161.302 66.168 C 161.146 66.167,160.973 66.242,160.917 66.333 M154.083 66.833 C 154.542 67.030,154.705 67.030,154.583 66.833 C 154.527 66.742,154.316 66.672,154.115 66.678 C 153.763 66.690,153.762 66.695,154.083 66.833 M159.250 66.833 C 159.128 67.030,159.291 67.030,159.750 66.833 C 160.071 66.695,160.070 66.690,159.718 66.678 C 159.517 66.672,159.307 66.742,159.250 66.833 M155.882 67.124 C 156.504 67.156,157.479 67.156,158.049 67.123 C 158.618 67.091,158.108 67.064,156.917 67.065 C 155.725 67.065,155.259 67.092,155.882 67.124 M293.042 70.282 C 293.202 70.323,293.465 70.323,293.625 70.282 C 293.785 70.240,293.654 70.205,293.333 70.205 C 293.012 70.205,292.881 70.240,293.042 70.282 M59.708 70.456 C 60.144 70.490,60.856 70.490,61.292 70.456 C 61.727 70.422,61.371 70.393,60.500 70.393 C 59.629 70.393,59.273 70.422,59.708 70.456 M89.208 70.456 C 89.644 70.490,90.356 70.490,90.792 70.456 C 91.227 70.422,90.871 70.393,90.000 70.393 C 89.129 70.393,88.773 70.422,89.208 70.456 M152.917 70.574 C 153.283 70.714,153.771 70.821,154.000 70.812 C 154.335 70.798,154.302 70.768,153.833 70.657 C 152.479 70.335,152.232 70.313,152.917 70.574 M160.613 70.443 C 160.553 70.503,160.222 70.607,159.877 70.673 C 159.300 70.785,159.290 70.796,159.750 70.812 C 160.025 70.821,160.550 70.720,160.917 70.588 C 161.475 70.387,161.513 70.347,161.153 70.341 C 160.916 70.337,160.673 70.383,160.613 70.443 M294.250 70.500 C 294.433 70.579,294.771 70.643,295.000 70.643 C 295.380 70.643,295.387 70.631,295.083 70.500 C 294.900 70.421,294.563 70.357,294.333 70.357 C 293.954 70.357,293.946 70.369,294.250 70.500 M299.500 70.500 L 299.083 70.633 299.500 70.638 C 299.729 70.641,300.067 70.579,300.250 70.500 L 300.583 70.357 300.250 70.362 C 300.067 70.364,299.729 70.427,299.500 70.500 M296.381 70.790 C 296.912 70.823,297.737 70.823,298.214 70.789 C 298.692 70.756,298.258 70.729,297.250 70.729 C 296.242 70.729,295.851 70.757,296.381 70.790 M156.167 70.897 C 156.167 71.039,156.960 71.101,157.261 70.983 C 157.489 70.894,157.376 70.853,156.875 70.845 C 156.485 70.839,156.167 70.862,156.167 70.897 " stroke="none" fill="#7c7c7c" fill-rule="evenodd"></path></g></svg>